<?xml version="1.0" encoding="UTF-8"?>
<!DOCTYPE svg PUBLIC "-//W3C//DTD SVG 1.1//EN" "http://www.w3.org/Graphics/SVG/1.1/DTD/svg11.dtd">
<svg xmlns="http://www.w3.org/2000/svg" version="1.1" width="707px" height="353px" style="shape-rendering:geometricPrecision; text-rendering:geometricPrecision; image-rendering:optimizeQuality; fill-rule:evenodd; clip-rule:evenodd" xmlns:xlink="http://www.w3.org/1999/xlink">
<g><path style="opacity:0.998" fill="#7de4e8" d="M 151.5,162.5 C 150.326,163.514 149.66,164.847 149.5,166.5C 148.167,170.167 146.833,173.833 145.5,177.5C 145.167,177.5 144.833,177.5 144.5,177.5C 141.626,180.189 141.959,180.856 145.5,179.5C 146.833,179.5 148.167,179.5 149.5,179.5C 152.546,179.817 154.213,178.484 154.5,175.5C 155.306,174.272 156.306,173.272 157.5,172.5C 158.833,172.5 160.167,172.5 161.5,172.5C 161.5,173.167 161.833,173.5 162.5,173.5C 162.427,175.027 163.094,176.027 164.5,176.5C 163.897,181.619 164.564,186.285 166.5,190.5C 167.794,189.71 168.961,188.71 170,187.5C 170.498,184.518 170.665,181.518 170.5,178.5C 171.174,173.849 173.841,172.349 178.5,174C 179.381,174.708 180.047,175.542 180.5,176.5C 180.786,178.933 181.452,178.933 182.5,176.5C 186.528,173.55 190.861,173.05 195.5,175C 197.75,177.422 200.083,179.589 202.5,181.5C 205.089,180.581 207.089,178.914 208.5,176.5C 210.911,174.14 213.911,173.14 217.5,173.5C 219.167,173.667 220.833,173.833 222.5,174C 223.056,174.383 223.389,174.883 223.5,175.5C 223.833,176.5 224.5,177.167 225.5,177.5C 226.309,178.469 227.309,179.302 228.5,180C 227.62,181.356 227.286,182.856 227.5,184.5C 227.786,186.933 228.452,186.933 229.5,184.5C 230.477,181.713 230.81,178.713 230.5,175.5C 232.708,172.986 235.374,172.319 238.5,173.5C 238.418,175.252 239.251,176.252 241,176.5C 242.03,176.164 242.53,175.497 242.5,174.5C 247.959,169.247 253.459,169.247 259,174.5C 259.499,178.486 259.666,182.486 259.5,186.5C 258.402,187.601 258.235,188.934 259,190.5C 260.481,189.529 261.315,188.196 261.5,186.5C 262.491,179.687 262.825,172.687 262.5,165.5C 262.319,155.133 262.819,144.8 264,134.5C 264.358,128.538 265.525,122.871 267.5,117.5C 268.537,116.07 269.204,114.403 269.5,112.5C 271.871,106.819 275.871,105.319 281.5,108C 283.894,109.952 285.394,112.452 286,115.5C 285.941,132.96 283.108,149.96 277.5,166.5C 276.427,167.251 276.26,168.251 277,169.5C 280.057,168.549 283.223,168.216 286.5,168.5C 289.954,168.957 291.621,170.957 291.5,174.5C 290.32,180.186 287.32,184.686 282.5,188C 283.13,189.31 284.13,190.144 285.5,190.5C 286.097,191.139 286.93,191.472 288,191.5C 289.699,191.613 290.866,190.947 291.5,189.5C 291.842,188.662 292.508,188.328 293.5,188.5C 295.027,188.573 296.027,187.906 296.5,186.5C 297.079,183.669 298.412,181.336 300.5,179.5C 301.833,178.833 302.833,177.833 303.5,176.5C 304.287,174.896 305.62,174.229 307.5,174.5C 310.833,174.5 314.167,174.5 317.5,174.5C 318.833,175.167 319.833,176.167 320.5,177.5C 320.981,180.522 321.647,183.522 322.5,186.5C 323.313,182.838 323.979,179.172 324.5,175.5C 325.512,173.124 327.345,172.124 330,172.5C 332.655,172.124 334.488,173.124 335.5,175.5C 335.5,177.167 335.5,178.833 335.5,180.5C 336.5,180.5 337.5,180.5 338.5,180.5C 340.833,180.833 342.167,182.167 342.5,184.5C 342.335,187.85 342.502,191.183 343,194.5C 344.095,193.307 344.928,191.973 345.5,190.5C 346.098,185.408 348.764,182.574 353.5,182C 356.116,191.176 353.45,198.843 345.5,205C 343.278,205.695 341.111,206.528 339,207.5C 336.755,206.863 334.588,206.03 332.5,205C 331.748,204.329 331.414,203.496 331.5,202.5C 331.826,198.116 331.492,193.783 330.5,189.5C 329.702,189.957 329.369,190.624 329.5,191.5C 329.047,192.458 328.381,193.292 327.5,194C 322.273,196.23 317.273,198.73 312.5,201.5C 309.5,201.5 306.5,201.5 303.5,201.5C 300.852,201.262 299.018,199.928 298,197.5C 290.577,203.56 283.077,203.893 275.5,198.5C 274.452,196.067 273.786,196.067 273.5,198.5C 274.003,205.162 271.003,207.662 264.5,206C 263.177,205.184 262.511,204.017 262.5,202.5C 262.649,198.999 261.649,198.666 259.5,201.5C 253.941,203.723 249.941,202.057 247.5,196.5C 247.665,192.818 247.499,189.152 247,185.5C 246.209,186.745 245.709,188.078 245.5,189.5C 244.89,190.391 244.557,191.391 244.5,192.5C 243.535,195.926 241.868,199.093 239.5,202C 237.167,202.667 234.833,202.667 232.5,202C 230.963,200.89 230.297,199.39 230.5,197.5C 230.649,193.999 229.649,193.666 227.5,196.5C 224.077,198.071 220.743,199.905 217.5,202C 212.889,203.007 208.555,202.34 204.5,200C 203.418,198.67 202.751,197.17 202.5,195.5C 202.762,194.022 202.429,192.689 201.5,191.5C 200.702,191.957 200.369,192.624 200.5,193.5C 199.817,197.02 197.817,199.52 194.5,201C 191.183,201.498 187.85,201.665 184.5,201.5C 184.5,201.167 184.5,200.833 184.5,200.5C 184.44,199.957 184.107,199.624 183.5,199.5C 182.534,201.396 182.201,203.396 182.5,205.5C 182.201,213.895 181.367,222.228 180,230.5C 177.779,233.512 174.946,234.179 171.5,232.5C 170.614,231.675 170.281,230.675 170.5,229.5C 171.639,219.166 171.639,208.833 170.5,198.5C 169.893,198.624 169.56,198.957 169.5,199.5C 165.39,202.1 161.39,202.1 157.5,199.5C 157.027,198.094 156.027,197.427 154.5,197.5C 152.949,195.087 152.283,192.421 152.5,189.5C 151.947,187.448 150.947,187.115 149.5,188.5C 145.565,189.435 141.565,190.269 137.5,191C 127.539,204.628 115.872,216.628 102.5,227C 89.4758,237.512 74.8092,244.845 58.5,249C 51.1075,250.201 44.6075,248.368 39,243.5C 35.0968,235.318 36.2635,227.985 42.5,221.5C 44.5,221.5 45.5,220.5 45.5,218.5C 48.0892,217.581 50.0892,215.914 51.5,213.5C 56.1522,209.169 61.4855,205.835 67.5,203.5C 68.4959,203.586 69.3292,203.252 70,202.5C 70.5,174.835 70.6666,147.169 70.5,119.5C 71.2415,116.862 73.0749,115.529 76,115.5C 78.151,115.643 79.8176,116.643 81,118.5C 81.5,144.165 81.6666,169.831 81.5,195.5C 81.9567,197.557 82.9567,197.557 84.5,195.5C 85.9303,194.463 87.597,193.796 89.5,193.5C 92.716,193.655 95.3826,192.655 97.5,190.5C 97.8333,190.5 98.1667,190.5 98.5,190.5C 101.152,190.59 103.485,189.924 105.5,188.5C 108.152,188.59 110.485,187.924 112.5,186.5C 116.59,184.892 120.923,183.725 125.5,183C 126.931,182.535 128.097,181.701 129,180.5C 138.51,164.462 143.676,147.128 144.5,128.5C 144.63,119.668 142.296,111.668 137.5,104.5C 137.167,102.167 135.833,100.833 133.5,100.5C 121.645,95.5303 109.645,95.3636 97.5,100C 89.2778,102.684 81.2778,105.85 73.5,109.5C 71.847,109.66 70.5137,110.326 69.5,111.5C 53.4524,120.37 39.2857,131.704 27,145.5C 24.4728,149.221 22.4728,153.221 21,157.5C 20.2917,158.381 19.4584,159.047 18.5,159.5C 16.1667,159.5 13.8333,159.5 11.5,159.5C 10.8333,159.5 10.5,159.167 10.5,158.5C 10.5,156.167 10.5,153.833 10.5,151.5C 13.9681,143.697 18.9681,137.03 25.5,131.5C 28.7642,129.906 31.4309,127.573 33.5,124.5C 36.0892,123.581 38.0892,121.914 39.5,119.5C 53.2671,108.277 68.6004,99.6105 85.5,93.5C 90.1646,92.9431 94.4979,91.6098 98.5,89.5C 113.232,84.6278 127.565,85.7944 141.5,93C 153.429,102.763 158.763,115.43 157.5,131C 157.594,141.943 155.594,152.443 151.5,162.5 Z M 245.5,189.5 C 246.885,190.947 246.552,191.947 244.5,192.5C 244.557,191.391 244.89,190.391 245.5,189.5 Z M 113.5,196.5 C 114.791,196.263 115.791,196.596 116.5,197.5C 101.866,214.62 84.1995,227.787 63.5,237C 59.0564,238.561 54.723,238.728 50.5,237.5C 49.5489,236.081 49.2155,234.415 49.5,232.5C 50.2216,232.918 50.7216,233.584 51,234.5C 51.5791,233.072 51.4124,231.738 50.5,230.5C 55.2509,224.413 60.9176,219.413 67.5,215.5C 69.0826,217.508 70.0826,219.841 70.5,222.5C 73.6516,227.169 77.1516,227.502 81,223.5C 81.4993,218.511 81.6659,213.511 81.5,208.5C 82.9245,210.031 83.5912,209.698 83.5,207.5C 93.3188,203.217 103.319,199.55 113.5,196.5 Z"/></g>
<g><path style="opacity:0.999" fill="#83e5e9" d="M 431.5,151.5 C 431.027,150.094 430.027,149.427 428.5,149.5C 427.588,148.262 427.421,146.928 428,145.5C 432.92,135.074 437.253,124.407 441,113.5C 442.359,108.225 442.692,102.891 442,97.5C 441.107,96.9186 440.107,96.5852 439,96.5C 432.94,97.8497 427.44,100.35 422.5,104C 391.708,134.365 377.875,171.198 381,214.5C 386.551,233.858 398.718,239.691 417.5,232C 425.697,228.743 433.031,224.243 439.5,218.5C 442.5,217.5 444.5,215.5 445.5,212.5C 447.529,210.142 449.529,207.808 451.5,205.5C 453.262,204.738 454.262,203.404 454.5,201.5C 454.328,200.508 454.662,199.842 455.5,199.5C 456.906,199.027 457.573,198.027 457.5,196.5C 458.906,196.027 459.573,195.027 459.5,193.5C 460.906,193.027 461.573,192.027 461.5,190.5C 461.709,189.078 462.209,187.745 463,186.5C 463.289,167.155 463.789,147.822 464.5,128.5C 465.682,122.699 466.348,116.699 466.5,110.5C 466.178,103.974 468.845,99.1403 474.5,96C 480.294,95.7779 483.794,98.6113 485,104.5C 485.691,125.823 483.524,146.823 478.5,167.5C 477.784,169.556 477.117,171.723 476.5,174C 477.998,174.585 478.998,174.085 479.5,172.5C 479.842,171.662 480.508,171.328 481.5,171.5C 484.833,171.5 488.167,171.5 491.5,171.5C 493.173,172.343 494.34,173.676 495,175.5C 495.498,178.482 495.665,181.482 495.5,184.5C 495.281,185.675 495.614,186.675 496.5,187.5C 497.107,187.376 497.44,187.043 497.5,186.5C 498.833,185.5 500.167,184.5 501.5,183.5C 502.906,183.027 503.573,182.027 503.5,180.5C 508.457,173.768 514.957,171.434 523,173.5C 526.558,170.926 529.891,171.26 533,174.5C 533.664,178.696 533.497,182.862 532.5,187C 532.509,188.404 533.009,189.57 534,190.5C 535.955,189.547 537.622,188.213 539,186.5C 539.143,182.381 539.81,178.381 541,174.5C 544.558,171.926 547.891,172.26 551,175.5C 556.825,169.518 562.825,169.185 569,174.5C 569.483,175.448 569.649,176.448 569.5,177.5C 569.334,181.514 569.501,185.514 570,189.5C 570.717,188.956 571.217,188.289 571.5,187.5C 571.5,186.833 571.5,186.167 571.5,185.5C 572.404,184.791 572.737,183.791 572.5,182.5C 572.833,182.5 573.167,182.5 573.5,182.5C 574.906,182.027 575.573,181.027 575.5,179.5C 577.296,177.1 579.63,175.433 582.5,174.5C 584.5,174.5 586.5,174.5 588.5,174.5C 588.737,173.209 588.404,172.209 587.5,171.5C 584.817,165.449 583.151,159.115 582.5,152.5C 582.284,143.467 582.617,134.467 583.5,125.5C 587.139,109.514 597.139,102.014 613.5,103C 622.696,106.862 628.196,113.695 630,123.5C 632.913,138.69 631.246,153.357 625,167.5C 620.645,174.669 616.145,181.669 611.5,188.5C 611.5,190.5 612.5,191.5 614.5,191.5C 625.923,193.233 630.423,188.233 628,176.5C 629.259,173.783 631.426,172.45 634.5,172.5C 636.557,172.436 638.223,173.102 639.5,174.5C 639.025,177.082 639.692,179.082 641.5,180.5C 644.878,179.891 646.878,181.224 647.5,184.5C 647.335,187.518 647.502,190.518 648,193.5C 648.717,192.956 649.217,192.289 649.5,191.5C 649.5,190.833 649.5,190.167 649.5,189.5C 650.167,189.5 650.5,189.167 650.5,188.5C 650.166,185.509 651.166,183.176 653.5,181.5C 655.5,180.167 657.167,178.5 658.5,176.5C 662.686,172.701 667.52,171.701 673,173.5C 676.762,170.692 680.262,171.025 683.5,174.5C 684.824,177.198 684.824,179.864 683.5,182.5C 682.844,183.622 682.511,184.955 682.5,186.5C 682.585,188.333 683.252,189.666 684.5,190.5C 687.991,187.51 691.324,184.343 694.5,181C 697.517,180.178 699.183,181.345 699.5,184.5C 695.454,199.022 686.454,203.688 672.5,198.5C 667.148,203.597 661.148,204.597 654.5,201.5C 642.643,210.894 635.977,208.228 634.5,193.5C 632.5,194.833 630.833,196.5 629.5,198.5C 628.106,200.708 626.106,202.208 623.5,203C 614.795,204.897 607.628,202.397 602,195.5C 595.591,201.192 588.091,203.692 579.5,203C 577.254,201.961 575.087,200.794 573,199.5C 568.333,203.5 563.667,203.5 559,199.5C 557.872,197.655 557.372,195.655 557.5,193.5C 558.064,184.501 557.064,183.834 554.5,191.5C 553.262,193.214 552.595,195.214 552.5,197.5C 550.79,202.183 547.457,203.683 542.5,202C 541.944,201.617 541.611,201.117 541.5,200.5C 541.306,196.995 540.306,196.662 538.5,199.5C 533.149,202.415 528.149,202.082 523.5,198.5C 522.5,195.833 521.5,195.833 520.5,198.5C 517.106,202.466 512.773,203.966 507.5,203C 503.837,202.155 500.837,200.322 498.5,197.5C 491.313,199.907 486.646,197.574 484.5,190.5C 484.799,188.396 484.466,186.396 483.5,184.5C 482.702,184.957 482.369,185.624 482.5,186.5C 482.5,187.167 482.5,187.833 482.5,188.5C 479.871,193.193 477.705,198.193 476,203.5C 475.5,204 475,204.5 474.5,205C 471.05,205.175 467.717,205.342 464.5,205.5C 452.979,225.69 435.979,238.69 413.5,244.5C 405.799,244.691 398.132,244.358 390.5,243.5C 375.47,236.922 367.636,225.255 367,208.5C 365.643,183.783 370.476,160.449 381.5,138.5C 382.906,138.027 383.573,137.027 383.5,135.5C 389.553,121.591 398.22,109.425 409.5,99C 412.464,96.1903 415.798,94.0236 419.5,92.5C 421.027,92.573 422.027,91.9063 422.5,90.5C 432.462,84.2527 442.295,84.2527 452,90.5C 455.877,97.8549 456.543,105.522 454,113.5C 450.89,126.883 445.723,139.383 438.5,151C 436.157,152.415 433.823,152.582 431.5,151.5 Z M 606.5,112.5 C 612.731,112.896 616.231,116.23 617,122.5C 621.132,142.635 616.799,160.635 604,176.5C 594.761,160.556 591.761,143.556 595,125.5C 597.356,119.656 601.19,115.322 606.5,112.5 Z M 586.5,183.5 C 589.412,183.789 591.412,185.289 592.5,188C 590.283,189.723 587.95,191.223 585.5,192.5C 584.532,190.393 584.198,188.059 584.5,185.5C 585.833,185.5 586.5,184.833 586.5,183.5 Z M 664.5,186.5 C 665.167,186.5 665.833,186.5 666.5,186.5C 666.573,188.027 665.906,189.027 664.5,189.5C 664.5,188.5 664.5,187.5 664.5,186.5 Z"/></g>
<g><path style="opacity:0.405" fill="#d5d9d9" d="M 434.5,89.5 C 439.412,89.0631 444.078,89.8964 448.5,92C 450.886,95.0798 451.886,98.5798 451.5,102.5C 449.893,118.653 444.893,133.653 436.5,147.5C 434.955,148.452 433.288,148.785 431.5,148.5C 435.37,137.754 439.536,127.087 444,116.5C 451.006,93.1455 444.173,87.3121 423.5,99C 400.106,118.931 385.273,144.098 379,174.5C 376.119,188.771 375.785,203.104 378,217.5C 383.407,234.781 394.907,241.615 412.5,238C 434.724,229.655 451.558,215.155 463,194.5C 464.333,191.833 465.667,189.167 467,186.5C 467.333,164.833 467.667,143.167 468,121.5C 468.521,115.749 469.521,110.083 471,104.5C 473.487,98.8744 476.82,98.2077 481,102.5C 481.759,113.865 481.425,125.199 480,136.5C 477.918,148.825 475.918,161.159 474,173.5C 473.333,177.5 473.333,181.5 474,185.5C 475.875,180.573 479.042,176.74 483.5,174C 486.466,173.105 489.133,173.605 491.5,175.5C 492.274,179.779 492.774,184.113 493,188.5C 494.77,190.418 496.937,190.918 499.5,190C 502.833,186.333 506.167,182.667 509.5,179C 513.76,176.405 518.26,175.905 523,177.5C 524.895,175.818 527.062,175.318 529.5,176C 530.059,176.725 530.392,177.558 530.5,178.5C 529.458,182.799 529.291,187.132 530,191.5C 534.74,194.476 538.74,193.476 542,188.5C 543.354,184.637 543.854,180.637 543.5,176.5C 545.144,176.286 546.644,176.62 548,177.5C 548.333,179.5 548.667,181.5 549,183.5C 551.281,180.097 554.114,177.263 557.5,175C 563.813,172.828 566.813,174.994 566.5,181.5C 565.885,185.171 565.719,188.838 566,192.5C 567.312,194.658 568.978,194.991 571,193.5C 573.803,188.415 576.97,183.582 580.5,179C 584.759,177.958 589.093,177.125 593.5,176.5C 584.565,158.81 582.732,140.477 588,121.5C 593.358,109.071 602.524,104.571 615.5,108C 624.963,115.276 628.963,124.943 627.5,137C 627.238,156.617 620.238,173.45 606.5,187.5C 615.467,199.573 624.133,199.239 632.5,186.5C 629.833,183.167 629.833,179.833 632.5,176.5C 634.042,175.253 635.542,175.253 637,176.5C 636.847,179.174 636.347,181.84 635.5,184.5C 638.393,183.477 641.226,183.477 644,184.5C 644.251,189.501 644.084,194.501 643.5,199.5C 646.325,199.919 648.491,198.919 650,196.5C 652.333,191.5 654.667,186.5 657,181.5C 661.655,176.809 667.155,175.475 673.5,177.5C 675.323,176.155 677.323,175.655 679.5,176C 679.721,181.073 679.888,186.24 680,191.5C 682.627,193.988 685.46,194.155 688.5,192C 691.027,189.114 693.694,186.781 696.5,185C 693.143,194.84 686.476,198.673 676.5,196.5C 675.081,194.664 673.914,192.664 673,190.5C 670.814,193.681 668.314,196.515 665.5,199C 660.97,200.227 656.97,199.394 653.5,196.5C 649.842,202.445 645.008,204.111 639,201.5C 638.337,196.463 638.504,191.463 639.5,186.5C 637.712,186.215 636.045,186.548 634.5,187.5C 625.338,203.057 614.505,204.39 602,191.5C 597.726,194.388 593.226,196.888 588.5,199C 581.954,201.072 577.121,199.239 574,193.5C 571.834,196.507 569.001,198.507 565.5,199.5C 563.234,199.069 561.734,197.736 561,195.5C 560.83,189.804 560.33,184.138 559.5,178.5C 557.142,180.024 555.309,182.024 554,184.5C 552.056,188.723 550.389,193.056 549,197.5C 547.688,199.658 546.022,199.991 544,198.5C 543.667,195.833 543.333,193.167 543,190.5C 538.302,197.293 532.302,198.96 525,195.5C 524.027,193.608 523.36,191.608 523,189.5C 520.642,195.538 516.309,198.871 510,199.5C 508.5,199.333 507,199.167 505.5,199C 503.888,196.678 502.555,194.178 501.5,191.5C 498.234,194.045 494.568,194.878 490.5,194C 489.299,193.097 488.465,191.931 488,190.5C 487.581,174.982 484.247,173.982 478,187.5C 476.53,192.243 474.864,196.909 473,201.5C 471.333,202.833 469.667,202.833 468,201.5C 467.667,198.833 467.333,196.167 467,193.5C 457.893,213.497 443.393,228.33 423.5,238C 412.374,242.873 401.041,243.539 389.5,240C 380.359,235.179 374.526,227.679 372,217.5C 367.698,180.019 376.698,146.019 399,115.5C 408.268,103.029 420.101,94.362 434.5,89.5 Z M 606.5,112.5 C 601.19,115.322 597.356,119.656 595,125.5C 591.761,143.556 594.761,160.556 604,176.5C 616.799,160.635 621.132,142.635 617,122.5C 616.231,116.23 612.731,112.896 606.5,112.5 Z M 586.5,183.5 C 589.412,183.789 591.412,185.289 592.5,188C 590.283,189.723 587.95,191.223 585.5,192.5C 584.532,190.393 584.198,188.059 584.5,185.5C 585.833,185.5 586.5,184.833 586.5,183.5 Z M 664.5,186.5 C 665.167,186.5 665.833,186.5 666.5,186.5C 666.573,188.027 665.906,189.027 664.5,189.5C 664.5,188.5 664.5,187.5 664.5,186.5 Z"/></g>
<g><path style="opacity:0.443" fill="#d4d9d9" d="M 205.5,193.5 C 205.808,191.076 205.474,188.743 204.5,186.5C 203.893,186.624 203.56,186.957 203.5,187.5C 201.321,187.84 199.488,188.84 198,190.5C 196.657,196.917 192.824,199.417 186.5,198C 183.735,195.034 184.068,192.367 187.5,190C 194.646,187.77 195.313,184.27 189.5,179.5C 186.867,180.301 185.033,181.967 184,184.5C 179.429,199.458 176.929,214.791 176.5,230.5C 175.5,230.5 174.5,230.5 173.5,230.5C 173.667,217.163 173.5,203.829 173,190.5C 170.24,196.297 165.74,198.463 159.5,197C 155.904,193.265 154.571,188.765 155.5,183.5C 148.726,184.479 142.059,185.979 135.5,188C 118.75,210.752 97.7501,228.419 72.5,241C 64.7886,244.264 56.7886,245.597 48.5,245C 41.1642,242.832 38.6642,237.999 41,230.5C 44.0659,224.1 48.5659,218.933 54.5,215C 60.7506,211.292 66.9173,207.459 73,203.5C 73.5,175.502 73.6666,147.502 73.5,119.5C 75.1439,119.286 76.6439,119.62 78,120.5C 78.5,147.165 78.6666,173.831 78.5,200.5C 86.8926,197.98 95.226,195.147 103.5,192C 110.688,189.703 118.022,188.036 125.5,187C 128.102,186.117 130.269,184.617 132,182.5C 139.382,169.686 144.382,156.02 147,141.5C 147.891,131.772 147.557,122.106 146,112.5C 142.409,103.241 135.909,97.0746 126.5,94C 110.757,92.3509 95.7567,95.0175 81.5,102C 58.6478,111.664 39.1478,125.831 23,144.5C 21.0503,149.424 18.3837,153.758 15,157.5C 13.5,157.333 12.6667,156.5 12.5,155C 15.0329,149.432 18.1996,144.265 22,139.5C 42.8418,117.818 67.6751,102.318 96.5,93C 142.694,84.1951 161.194,103.028 152,149.5C 148.293,161.232 143.793,172.566 138.5,183.5C 143.567,183.378 148.567,182.711 153.5,181.5C 155.4,180.553 156.733,179.053 157.5,177C 158.5,176.333 159.5,176.333 160.5,177C 161.305,181.749 161.805,186.582 162,191.5C 166.832,194.278 170.499,192.945 173,187.5C 174.446,172.879 176.446,172.879 179,187.5C 181.535,179.487 186.702,176.654 194.5,179C 196.221,181.619 198.054,184.119 200,186.5C 204.099,184.865 207.599,182.365 210.5,179C 221.431,174.589 225.764,178.256 223.5,190C 227.672,190.868 230.838,189.368 233,185.5C 233.498,182.518 233.665,179.518 233.5,176.5C 235.144,176.286 236.644,176.62 238,177.5C 238.333,179.5 238.667,181.5 239,183.5C 240.812,180.72 242.979,178.22 245.5,176C 252.514,172.433 256.18,174.433 256.5,182C 255.761,185.827 255.594,189.66 256,193.5C 257.049,194.517 258.216,194.684 259.5,194C 261.709,192.127 263.542,189.96 265,187.5C 264.924,166.075 266.257,144.742 269,123.5C 269.713,118.77 271.547,114.603 274.5,111C 278.166,109.729 280.666,110.896 282,114.5C 282.667,119.833 282.667,125.167 282,130.5C 278.783,147.026 275.116,163.359 271,179.5C 274.315,171.923 279.815,169.423 287.5,172C 288.846,174.794 288.346,177.294 286,179.5C 283.106,182.361 279.939,184.861 276.5,187C 279.186,190.54 282.519,193.04 286.5,194.5C 290.374,193.565 294.04,192.065 297.5,190C 299.74,186.47 302.073,182.97 304.5,179.5C 315.86,174.025 320.527,177.525 318.5,190C 322.289,190.608 325.289,189.275 327.5,186C 326.39,183.263 326.223,180.429 327,177.5C 329.222,174.697 331.055,174.863 332.5,178C 331.932,179.872 331.265,181.705 330.5,183.5C 333.309,183.524 336.143,183.857 339,184.5C 339.499,189.489 339.666,194.489 339.5,199.5C 341.582,199.528 343.416,198.861 345,197.5C 347,194.167 349,190.833 351,187.5C 350.782,195.888 346.615,201.221 338.5,203.5C 336.617,203.124 335.117,202.124 334,200.5C 333.667,195.826 333.833,191.16 334.5,186.5C 330.473,186.006 327.473,187.506 325.5,191C 319.243,193.428 313.243,196.261 307.5,199.5C 302.733,199.02 299.899,196.354 299,191.5C 288.498,201.722 279.332,200.722 271.5,188.5C 270.672,193.132 270.172,197.798 270,202.5C 268.667,203.833 267.333,203.833 266,202.5C 265.667,198.833 265.333,195.167 265,191.5C 262.656,196.546 258.823,199.046 253.5,199C 252.667,198.167 251.833,197.333 251,196.5C 249.834,190.534 249.334,184.534 249.5,178.5C 247.851,179.648 246.351,180.981 245,182.5C 242.109,187.849 239.609,193.349 237.5,199C 236.216,199.684 235.049,199.517 234,198.5C 233.667,195.167 233.333,191.833 233,188.5C 229.949,191.912 226.115,193.912 221.5,194.5C 217.807,199.396 213.14,200.562 207.5,198C 206.418,196.67 205.751,195.17 205.5,193.5 Z M 245.5,189.5 C 246.885,190.947 246.552,191.947 244.5,192.5C 244.557,191.391 244.89,190.391 245.5,189.5 Z M 113.5,196.5 C 114.791,196.263 115.791,196.596 116.5,197.5C 101.866,214.62 84.1995,227.787 63.5,237C 59.0564,238.561 54.723,238.728 50.5,237.5C 49.5489,236.081 49.2155,234.415 49.5,232.5C 50.2216,232.918 50.7216,233.584 51,234.5C 51.5791,233.072 51.4124,231.738 50.5,230.5C 55.2509,224.413 60.9176,219.413 67.5,215.5C 69.0826,217.508 70.0826,219.841 70.5,222.5C 73.6516,227.169 77.1516,227.502 81,223.5C 81.4993,218.511 81.6659,213.511 81.5,208.5C 82.9245,210.031 83.5912,209.698 83.5,207.5C 93.3188,203.217 103.319,199.55 113.5,196.5 Z"/></g>
<g><path style="opacity:0.667" fill="#c8f4f6" d="M 422.5,90.5 C 422.027,91.9063 421.027,92.573 419.5,92.5C 419.973,91.0937 420.973,90.427 422.5,90.5 Z"/></g>
<g><path style="opacity:0.957" fill="#a4edf0" d="M 98.5,89.5 C 94.4979,91.6098 90.1646,92.9431 85.5,93.5C 89.5021,91.3902 93.8354,90.0569 98.5,89.5 Z"/></g>
<g><path style="opacity:0.757" fill="#c9f4f6" d="M 133.5,100.5 C 135.833,100.833 137.167,102.167 137.5,104.5C 135.833,103.5 134.5,102.167 133.5,100.5 Z"/></g>
<g><path style="opacity:1" fill="#6ce0e4" d="M 475.5,151.5 C 474.517,147.702 474.183,143.702 474.5,139.5C 474.262,128.797 474.762,118.13 476,107.5C 476.308,106.692 476.808,106.025 477.5,105.5C 477.833,109.167 478.167,112.833 478.5,116.5C 478.04,128.223 477.04,139.889 475.5,151.5 Z"/></g>
<g><path style="opacity:0.999" fill="#87e6e9" d="M 602.5,109.5 C 613.338,108.002 619.505,112.668 621,123.5C 624.726,146.144 618.892,165.81 603.5,182.5C 591.242,164.045 587.408,144.045 592,122.5C 594.571,117.324 598.071,112.991 602.5,109.5 Z M 606.5,112.5 C 601.19,115.322 597.356,119.656 595,125.5C 591.761,143.556 594.761,160.556 604,176.5C 616.799,160.635 621.132,142.635 617,122.5C 616.231,116.23 612.731,112.896 606.5,112.5 Z"/></g>
<g><path style="opacity:0.014" fill="#ebfbfc" d="M 73.5,109.5 C 72.713,111.104 71.3797,111.771 69.5,111.5C 70.5137,110.326 71.847,109.66 73.5,109.5 Z"/></g>
<g><path style="opacity:0.639" fill="#c8f4f6" d="M 269.5,112.5 C 269.204,114.403 268.537,116.07 267.5,117.5C 267.12,115.302 267.787,113.635 269.5,112.5 Z"/></g>
<g><path style="opacity:1" fill="#6de0e4" d="M 277.5,114.5 C 278.117,114.611 278.617,114.944 279,115.5C 278.432,132.789 275.765,149.789 271,166.5C 270.85,150.386 272.183,134.386 275,118.5C 275.662,117.016 276.496,115.683 277.5,114.5 Z"/></g>
<g><path style="opacity:0.847" fill="#b2f0f2" d="M 39.5,119.5 C 38.0892,121.914 36.0892,123.581 33.5,124.5C 34.9108,122.086 36.9108,120.419 39.5,119.5 Z"/></g>
<g><path style="opacity:0.334" fill="#d0f6f8" d="M 70.5,119.5 C 70.6666,147.169 70.5,174.835 70,202.5C 69.3292,203.252 68.4959,203.586 67.5,203.5C 67.7828,202.711 68.2828,202.044 69,201.5C 69.1677,173.997 69.6677,146.664 70.5,119.5 Z"/></g>
<g><path style="opacity:0.443" fill="#cbf5f6" d="M 466.5,110.5 C 466.348,116.699 465.682,122.699 464.5,128.5C 464.276,122.261 464.943,116.261 466.5,110.5 Z"/></g>
<g><path style="opacity:0.694" fill="#bdf2f4" d="M 33.5,124.5 C 31.4309,127.573 28.7642,129.906 25.5,131.5C 27.5691,128.427 30.2358,126.094 33.5,124.5 Z"/></g>
<g><path style="opacity:0.106" fill="#e6fafb" d="M 383.5,135.5 C 383.573,137.027 382.906,138.027 381.5,138.5C 381.427,136.973 382.094,135.973 383.5,135.5 Z"/></g>
<g><path style="opacity:0.82" fill="#b7f1f3" d="M 583.5,125.5 C 582.617,134.467 582.284,143.467 582.5,152.5C 581.718,148.326 581.051,143.992 580.5,139.5C 580.923,134.571 581.923,129.904 583.5,125.5 Z"/></g>
<g><path style="opacity:0.318" fill="#ccf5f6" d="M 428.5,149.5 C 430.027,149.427 431.027,150.094 431.5,151.5C 429.973,151.573 428.973,150.906 428.5,149.5 Z"/></g>
<g><path style="opacity:0.99" fill="#8fdde0" d="M 474.5,139.5 C 474.183,143.702 474.517,147.702 475.5,151.5C 474.955,154.813 474.455,158.146 474,161.5C 473.178,153.988 473.345,146.655 474.5,139.5 Z"/></g>
<g><path style="opacity:0.816" fill="#b9f1f3" d="M 10.5,151.5 C 10.5,153.833 10.5,156.167 10.5,158.5C 9.75147,157.469 9.0848,156.302 8.5,155C 9.0848,153.698 9.75147,152.531 10.5,151.5 Z"/></g>
<g><path style="opacity:0.859" fill="#b4f0f3" d="M 11.5,159.5 C 13.8333,159.5 16.1667,159.5 18.5,159.5C 16.2358,161.891 13.9024,161.891 11.5,159.5 Z"/></g>
<g><path style="opacity:0.263" fill="#e5fafb" d="M 163.5,161.5 C 157.833,161.167 155.167,163.833 155.5,169.5C 153.853,166.248 154.52,163.414 157.5,161C 159.712,160.211 161.712,160.378 163.5,161.5 Z"/></g>
<g><path style="opacity:0.993" fill="#73e3e7" d="M 163.5,161.5 C 163.833,161.5 164.167,161.5 164.5,161.5C 165.219,163.764 165.552,166.097 165.5,168.5C 164.833,170.5 163.5,171.833 161.5,172.5C 160.167,172.5 158.833,172.5 157.5,172.5C 156.094,172.027 155.427,171.027 155.5,169.5C 155.167,163.833 157.833,161.167 163.5,161.5 Z"/></g>
<g><path style="opacity:0.004" fill="#fafefe" d="M 151.5,162.5 C 152.234,163.708 152.567,165.041 152.5,166.5C 151.5,166.5 150.5,166.5 149.5,166.5C 149.66,164.847 150.326,163.514 151.5,162.5 Z"/></g>
<g><path style="opacity:0.221" fill="#d2d9d9" d="M 159.5,164.5 C 164.062,164.279 164.728,165.779 161.5,169C 160.552,169.483 159.552,169.649 158.5,169.5C 158.366,167.708 158.699,166.042 159.5,164.5 Z"/></g>
<g><path style="opacity:0.463" fill="#c5f4f5" d="M 164.5,161.5 C 165.993,162.312 166.66,163.645 166.5,165.5C 166.48,166.726 166.147,167.726 165.5,168.5C 165.552,166.097 165.219,163.764 164.5,161.5 Z"/></g>
<g><path style="opacity:0.58" fill="#cef5f7" d="M 277.5,166.5 C 280.558,166.153 283.558,166.819 286.5,168.5C 283.223,168.216 280.057,168.549 277,169.5C 276.26,168.251 276.427,167.251 277.5,166.5 Z"/></g>
<g><path style="opacity:0.01" fill="#e7fafb" d="M 478.5,167.5 C 478.216,169.415 478.549,171.081 479.5,172.5C 478.998,174.085 477.998,174.585 476.5,174C 477.117,171.723 477.784,169.556 478.5,167.5 Z"/></g>
<g><path style="opacity:0.765" fill="#bbf2f4" d="M 491.5,171.5 C 488.167,171.5 484.833,171.5 481.5,171.5C 484.736,169.41 488.069,169.41 491.5,171.5 Z"/></g>
<g><path style="opacity:0.643" fill="#b2f0f2" d="M 317.5,174.5 C 314.167,174.5 310.833,174.5 307.5,174.5C 310.947,172.293 314.28,172.293 317.5,174.5 Z"/></g>
<g><path style="opacity:0.6" fill="#c8f4f6" d="M 587.5,171.5 C 588.404,172.209 588.737,173.209 588.5,174.5C 586.5,174.5 584.5,174.5 582.5,174.5C 584.42,173.935 586.087,172.935 587.5,171.5 Z"/></g>
<g><path style="opacity:0.843" fill="#b6f1f2" d="M 238.5,173.5 C 239.705,175.138 241.038,175.471 242.5,174.5C 242.53,175.497 242.03,176.164 241,176.5C 239.251,176.252 238.418,175.252 238.5,173.5 Z"/></g>
<g><path style="opacity:0.278" fill="#d2f6f8" d="M 162.5,173.5 C 163.906,173.973 164.573,174.973 164.5,176.5C 163.094,176.027 162.427,175.027 162.5,173.5 Z"/></g>
<g><path style="opacity:0.004" fill="#e6fafb" d="M 223.5,175.5 C 224.833,175.5 225.5,176.167 225.5,177.5C 224.5,177.167 223.833,176.5 223.5,175.5 Z"/></g>
<g><path style="opacity:1" fill="#6be0e4" d="M 279.5,174.5 C 280.5,174.5 281.5,174.5 282.5,174.5C 281.556,179.444 278.556,182.444 273.5,183.5C 272.592,182.21 272.759,180.877 274,179.5C 276.191,178.167 278.024,176.5 279.5,174.5 Z"/></g>
<g><path style="opacity:0.016" fill="#fafefe" d="M 180.5,176.5 C 181.167,176.5 181.833,176.5 182.5,176.5C 181.452,178.933 180.786,178.933 180.5,176.5 Z"/></g>
<g><path style="opacity:0.008" fill="#fcfefe" d="M 145.5,177.5 C 146.833,177.833 148.167,178.167 149.5,178.5C 149.5,178.833 149.5,179.167 149.5,179.5C 148.167,179.5 146.833,179.5 145.5,179.5C 145.5,178.833 145.5,178.167 145.5,177.5 Z"/></g>
<g><path style="opacity:0.01" fill="#fcfefe" d="M 569.5,177.5 C 572.084,178.048 573.084,179.715 572.5,182.5C 571.596,183.209 571.263,184.209 571.5,185.5C 570.167,186.167 570.167,186.833 571.5,187.5C 571.217,188.289 570.717,188.956 570,189.5C 569.501,185.514 569.334,181.514 569.5,177.5 Z"/></g>
<g><path style="opacity:0.604" fill="#c5f4f6" d="M 639.5,174.5 C 640.285,176.374 640.952,178.374 641.5,180.5C 639.692,179.082 639.025,177.082 639.5,174.5 Z"/></g>
<g><path style="opacity:0.545" fill="#ccf5f6" d="M 658.5,176.5 C 657.167,178.5 655.5,180.167 653.5,181.5C 654.167,178.833 655.833,177.167 658.5,176.5 Z"/></g>
<g><path style="opacity:0.796" fill="#b5f1f3" d="M 154.5,175.5 C 154.213,178.484 152.546,179.817 149.5,179.5C 149.5,179.167 149.5,178.833 149.5,178.5C 151.664,178.279 153.33,177.279 154.5,175.5 Z"/></g>
<g><path style="opacity:0.139" fill="#f0fcfc" d="M 262.5,165.5 C 262.825,172.687 262.491,179.687 261.5,186.5C 260.766,179.392 261.1,172.392 262.5,165.5 Z"/></g>
<g><path style="opacity:0.4" fill="#cff6f7" d="M 303.5,176.5 C 302.833,177.833 301.833,178.833 300.5,179.5C 300.5,177.5 301.5,176.5 303.5,176.5 Z"/></g>
<g><path style="opacity:0.009" fill="#fdfefe" d="M 335.5,175.5 C 336.308,177.22 337.308,178.887 338.5,180.5C 337.5,180.5 336.5,180.5 335.5,180.5C 335.5,178.833 335.5,177.167 335.5,175.5 Z"/></g>
<g><path style="opacity:0.2" fill="#d8f8f8" d="M 144.5,177.5 C 144.328,178.492 144.662,179.158 145.5,179.5C 141.959,180.856 141.626,180.189 144.5,177.5 Z"/></g>
<g><path style="opacity:0.009" fill="#fdfefe" d="M 164.5,176.5 C 165.225,180.395 165.891,184.395 166.5,188.5C 165.167,188.833 165.167,189.167 166.5,189.5C 166.5,189.833 166.5,190.167 166.5,190.5C 164.564,186.285 163.897,181.619 164.5,176.5 Z"/></g>
<g><path style="opacity:0.443" fill="#daf8f9" d="M 208.5,176.5 C 207.089,178.914 205.089,180.581 202.5,181.5C 203.911,179.086 205.911,177.419 208.5,176.5 Z"/></g>
<g><path style="opacity:1" fill="#6ae0e4" d="M 216.5,180.5 C 217.5,180.5 218.5,180.5 219.5,180.5C 219.664,183.187 219.497,185.854 219,188.5C 216.797,186.331 215.964,183.665 216.5,180.5 Z"/></g>
<g><path style="opacity:1" fill="#68e1e6" d="M 515.5,179.5 C 517.591,179.318 519.591,179.652 521.5,180.5C 521.419,186.478 518.752,191.312 513.5,195C 512.207,195.49 510.873,195.657 509.5,195.5C 508.561,188.974 510.561,183.64 515.5,179.5 Z"/></g>
<g><path style="opacity:1" fill="#77e3e7" d="M 586.5,179.5 C 591.622,180.613 595.288,183.613 597.5,188.5C 593.269,193.45 587.935,195.95 581.5,196C 578.588,189.229 580.254,183.729 586.5,179.5 Z M 586.5,183.5 C 589.412,183.789 591.412,185.289 592.5,188C 590.283,189.723 587.95,191.223 585.5,192.5C 584.532,190.393 584.198,188.059 584.5,185.5C 585.833,185.5 586.5,184.833 586.5,183.5 Z"/></g>
<g><path style="opacity:1" fill="#6ee1e6" d="M 666.5,179.5 C 671.123,178.408 672.956,180.075 672,184.5C 670.114,188.44 667.614,191.94 664.5,195C 662.866,195.494 661.199,195.66 659.5,195.5C 658.605,188.634 660.938,183.301 666.5,179.5 Z M 664.5,186.5 C 665.167,186.5 665.833,186.5 666.5,186.5C 666.573,188.027 665.906,189.027 664.5,189.5C 664.5,188.5 664.5,187.5 664.5,186.5 Z"/></g>
<g><path style="opacity:0.314" fill="#d4f7f8" d="M 230.5,175.5 C 230.81,178.713 230.477,181.713 229.5,184.5C 228.84,181.443 229.173,178.443 230.5,175.5 Z"/></g>
<g><path style="opacity:1" fill="#69e0e4" d="M 311.5,180.5 C 312.496,180.414 313.329,180.748 314,181.5C 314.814,183.902 314.647,186.235 313.5,188.5C 311.771,186.149 311.104,183.482 311.5,180.5 Z"/></g>
<g><path style="opacity:0.778" fill="#bef3f4" d="M 324.5,175.5 C 323.979,179.172 323.313,182.838 322.5,186.5C 321.647,183.522 320.981,180.522 320.5,177.5C 321.117,177.611 321.617,177.944 322,178.5C 322.377,177.058 323.21,176.058 324.5,175.5 Z"/></g>
<g><path style="opacity:0.384" fill="#c9f4f6" d="M 575.5,179.5 C 575.573,181.027 574.906,182.027 573.5,182.5C 573.427,180.973 574.094,179.973 575.5,179.5 Z"/></g>
<g><path style="opacity:0.404" fill="#ccf5f7" d="M 503.5,180.5 C 503.573,182.027 502.906,183.027 501.5,183.5C 501.427,181.973 502.094,180.973 503.5,180.5 Z"/></g>
<g><path style="opacity:0.031" fill="#effcfc" d="M 516.5,183.5 C 517.251,182.427 518.251,182.26 519.5,183C 518.956,183.717 518.289,184.217 517.5,184.5C 517.5,183.833 517.167,183.5 516.5,183.5 Z"/></g>
<g><path style="opacity:0.03" fill="#f0fcfc" d="M 667.5,185.5 C 666.794,184.443 666.461,184.776 666.5,186.5C 665.833,186.5 665.167,186.5 664.5,186.5C 664.965,183.527 666.632,182.36 669.5,183C 668.934,183.995 668.267,184.828 667.5,185.5 Z"/></g>
<g><path style="opacity:0.035" fill="#fcfffe" d="M 188.5,184.5 C 188.56,183.957 188.893,183.624 189.5,183.5C 190.773,184.257 190.773,184.923 189.5,185.5C 189.5,184.833 189.167,184.5 188.5,184.5 Z"/></g>
<g><path style="opacity:0.007" fill="#fefffe" d="M 497.5,186.5 C 497.44,187.043 497.107,187.376 496.5,187.5C 495.614,186.675 495.281,185.675 495.5,184.5C 496.117,184.389 496.617,184.056 497,183.5C 496.891,184.769 497.058,185.769 497.5,186.5 Z"/></g>
<g><path style="opacity:0.008" fill="#f6fdfd" d="M 586.5,183.5 C 586.5,184.833 585.833,185.5 584.5,185.5C 584.833,184.5 585.5,183.833 586.5,183.5 Z"/></g>
<g><path style="opacity:0.012" fill="#fdfefe" d="M 647.5,184.5 C 648.857,185.59 649.857,186.924 650.5,188.5C 650.5,189.167 650.167,189.5 649.5,189.5C 648.167,190.167 648.167,190.833 649.5,191.5C 649.217,192.289 648.717,192.956 648,193.5C 647.502,190.518 647.335,187.518 647.5,184.5 Z"/></g>
<g><path style="opacity:0.122" fill="#f1fcfc" d="M 227.5,184.5 C 228.167,184.5 228.833,184.5 229.5,184.5C 228.452,186.933 227.786,186.933 227.5,184.5 Z"/></g>
<g><path style="opacity:0.302" fill="#e2fafa" d="M 189.5,185.5 C 188.828,186.267 187.995,186.934 187,187.5C 186.812,185.939 187.645,185.272 189.5,185.5 Z"/></g>
<g><path style="opacity:0.004" fill="#f8fdfe" d="M 516.5,183.5 C 516.5,184.167 516.5,184.833 516.5,185.5C 515.833,185.5 515.5,185.833 515.5,186.5C 514.662,186.842 514.328,187.508 514.5,188.5C 513.833,188.5 513.5,188.833 513.5,189.5C 513.167,189.5 512.833,189.5 512.5,189.5C 512.845,186.802 514.178,184.802 516.5,183.5 Z"/></g>
<g><path style="opacity:0.075" fill="#eefcfc" d="M 683.5,182.5 C 683.472,184.582 684.139,186.416 685.5,188C 684.748,188.671 684.414,189.504 684.5,190.5C 683.252,189.666 682.585,188.333 682.5,186.5C 682.511,184.955 682.844,183.622 683.5,182.5 Z"/></g>
<g><path style="opacity:0.78" fill="#bdf2f4" d="M 112.5,186.5 C 110.485,187.924 108.152,188.59 105.5,188.5C 107.515,187.076 109.848,186.41 112.5,186.5 Z"/></g>
<g><path style="opacity:0.016" fill="#f6fdfd" d="M 149.5,188.5 C 150.947,187.115 151.947,187.448 152.5,189.5C 151.609,188.89 150.609,188.557 149.5,188.5 Z"/></g>
<g><path style="opacity:0.545" fill="#dcf8f9" d="M 170.5,178.5 C 170.665,181.518 170.498,184.518 170,187.5C 168.961,188.71 167.794,189.71 166.5,190.5C 166.5,190.167 166.5,189.833 166.5,189.5C 166.5,189.167 166.5,188.833 166.5,188.5C 167.458,188.047 168.292,187.381 169,186.5C 169.183,183.635 169.683,180.969 170.5,178.5 Z"/></g>
<g><path style="opacity:1" fill="#6ee0e4" d="M 211.5,184.5 C 212.506,187.816 214.506,190.483 217.5,192.5C 216.125,195.547 213.792,196.88 210.5,196.5C 209.001,192.335 209.334,188.335 211.5,184.5 Z"/></g>
<g><path style="opacity:0.588" fill="#ccf5f6" d="M 296.5,186.5 C 296.027,187.906 295.027,188.573 293.5,188.5C 293.973,187.094 294.973,186.427 296.5,186.5 Z"/></g>
<g><path style="opacity:1" fill="#6ae0e5" d="M 306.5,184.5 C 307.755,187.501 309.422,190.334 311.5,193C 310.571,195.909 308.571,197.075 305.5,196.5C 304.001,192.335 304.334,188.335 306.5,184.5 Z"/></g>
<g><path style="opacity:0.318" fill="#d2f6f8" d="M 516.5,185.5 C 516.833,185.5 517.167,185.5 517.5,185.5C 517.573,187.027 516.906,188.027 515.5,188.5C 515.5,187.833 515.5,187.167 515.5,186.5C 516.167,186.5 516.5,186.167 516.5,185.5 Z"/></g>
<g><path style="opacity:0.011" fill="#f3fcfd" d="M 584.5,185.5 C 584.198,188.059 584.532,190.393 585.5,192.5C 584.791,193.404 583.791,193.737 582.5,193.5C 582.294,190.505 582.96,187.838 584.5,185.5 Z"/></g>
<g><path style="opacity:0.184" fill="#e2f9fa" d="M 259.5,186.5 C 259.938,187.506 260.604,187.506 261.5,186.5C 261.315,188.196 260.481,189.529 259,190.5C 258.235,188.934 258.402,187.601 259.5,186.5 Z"/></g>
<g><path style="opacity:0.011" fill="#fafefe" d="M 342.5,184.5 C 343.5,186.5 344.5,188.5 345.5,190.5C 344.928,191.973 344.095,193.307 343,194.5C 342.502,191.183 342.335,187.85 342.5,184.5 Z"/></g>
<g><path style="opacity:0.009" fill="#ebfbfb" d="M 484.5,190.5 C 482.797,191.66 482.131,190.993 482.5,188.5C 483.833,187.833 483.833,187.167 482.5,186.5C 482.369,185.624 482.702,184.957 483.5,184.5C 484.466,186.396 484.799,188.396 484.5,190.5 Z"/></g>
<g><path style="opacity:0.007" fill="#effcfc" d="M 557.5,193.5 C 556.883,193.611 556.383,193.944 556,194.5C 555.768,193.263 555.268,192.263 554.5,191.5C 557.064,183.834 558.064,184.501 557.5,193.5 Z"/></g>
<g><path style="opacity:0.757" fill="#b9f1f3" d="M 105.5,188.5 C 103.485,189.924 101.152,190.59 98.5,190.5C 100.515,189.076 102.848,188.41 105.5,188.5 Z"/></g>
<g><path style="opacity:0.635" fill="#abdcdd" d="M 203.5,187.5 C 203.56,186.957 203.893,186.624 204.5,186.5C 205.474,188.743 205.808,191.076 205.5,193.5C 204.833,191.5 204.167,189.5 203.5,187.5 Z"/></g>
<g><path style="opacity:0.584" fill="#cff6f7" d="M 247.5,196.5 C 246.659,195.074 245.659,193.74 244.5,192.5C 246.552,191.947 246.885,190.947 245.5,189.5C 245.709,188.078 246.209,186.745 247,185.5C 247.499,189.152 247.665,192.818 247.5,196.5 Z"/></g>
<g><path style="opacity:0.427" fill="#dbf8f9" d="M 611.5,188.5 C 612.833,189.167 613.833,190.167 614.5,191.5C 612.5,191.5 611.5,190.5 611.5,188.5 Z"/></g>
<g><path style="opacity:0.01" fill="#f2fcfd" d="M 664.5,186.5 C 664.5,187.5 664.5,188.5 664.5,189.5C 663.167,189.833 663.167,190.167 664.5,190.5C 663.477,192.906 662.81,192.906 662.5,190.5C 662.668,188.829 663.335,187.496 664.5,186.5 Z"/></g>
<g><path style="opacity:0.998" fill="#80e5e8" d="M 119.5,190.5 C 121.604,190.201 123.604,190.534 125.5,191.5C 110.394,212.047 91.3937,227.88 68.5,239C 62.3627,241.454 56.0294,242.454 49.5,242C 44.7225,238.034 44.2225,233.534 48,228.5C 54.6847,219.638 63.1847,213.304 73.5,209.5C 73.3345,213.514 73.5012,217.514 74,221.5C 75.0495,222.517 76.2161,222.684 77.5,222C 78.1667,216.333 78.8333,210.667 79.5,205C 92.7628,199.638 106.096,194.804 119.5,190.5 Z M 113.5,196.5 C 114.791,196.263 115.791,196.596 116.5,197.5C 101.866,214.62 84.1995,227.787 63.5,237C 59.0564,238.561 54.723,238.728 50.5,237.5C 49.5489,236.081 49.2155,234.415 49.5,232.5C 50.2216,232.918 50.7216,233.584 51,234.5C 51.5791,233.072 51.4124,231.738 50.5,230.5C 55.2509,224.413 60.9176,219.413 67.5,215.5C 69.0826,217.508 70.0826,219.841 70.5,222.5C 73.6516,227.169 77.1516,227.502 81,223.5C 81.4993,218.511 81.6659,213.511 81.5,208.5C 82.9245,210.031 83.5912,209.698 83.5,207.5C 93.3188,203.217 103.319,199.55 113.5,196.5 Z"/></g>
<g><path style="opacity:0.847" fill="#c9f4f6" d="M 291.5,189.5 C 290.866,190.947 289.699,191.613 288,191.5C 286.93,191.472 286.097,191.139 285.5,190.5C 287.565,190.483 289.565,190.15 291.5,189.5 Z"/></g>
<g><path style="opacity:0.384" fill="#c7f4f6" d="M 514.5,188.5 C 514.833,188.5 515.167,188.5 515.5,188.5C 515.238,190.564 514.071,191.897 512,192.5C 511.26,191.251 511.427,190.251 512.5,189.5C 512.833,190.833 513.167,190.833 513.5,189.5C 514.167,189.5 514.5,189.167 514.5,188.5 Z"/></g>
<g><path style="opacity:1" fill="#79dfe3" d="M 191.5,190.5 C 192.376,190.369 193.043,190.702 193.5,191.5C 192.876,193.754 191.543,195.421 189.5,196.5C 189.167,196 188.833,195.5 188.5,195C 189.315,193.357 190.315,191.857 191.5,190.5 Z"/></g>
<g><path style="opacity:0.835" fill="#b4f0f3" d="M 97.5,190.5 C 95.3826,192.655 92.716,193.655 89.5,193.5C 91.936,192.129 94.6027,191.129 97.5,190.5 Z"/></g>
<g><path style="opacity:0.306" fill="#e2f9fa" d="M 202.5,195.5 C 201.833,194.833 201.167,194.167 200.5,193.5C 200.369,192.624 200.702,191.957 201.5,191.5C 202.429,192.689 202.762,194.022 202.5,195.5 Z"/></g>
<g><path style="opacity:0.192" fill="#e0f9fa" d="M 461.5,190.5 C 461.573,192.027 460.906,193.027 459.5,193.5C 459.427,191.973 460.094,190.973 461.5,190.5 Z"/></g>
<g><path style="opacity:0.005" fill="#f4fdfd" d="M 84.5,195.5 C 82.9567,197.557 81.9567,197.557 81.5,195.5C 82.2216,195.082 82.7216,194.416 83,193.5C 83.2784,194.416 83.7784,195.082 84.5,195.5 Z"/></g>
<g><path style="opacity:0.004" fill="#f4fdfd" d="M 554.5,191.5 C 554.946,194.01 554.28,196.01 552.5,197.5C 552.595,195.214 553.262,193.214 554.5,191.5 Z"/></g>
<g><path style="opacity:0.009" fill="#f7fdfd" d="M 634.5,193.5 C 634.657,194.873 634.49,196.207 634,197.5C 633.667,197.167 633.333,196.833 633,196.5C 632.184,197.823 631.017,198.489 629.5,198.5C 630.833,196.5 632.5,194.833 634.5,193.5 Z"/></g>
<g><path style="opacity:0.016" fill="#edfbfc" d="M 116.5,197.5 C 115.791,196.596 114.791,196.263 113.5,196.5C 115.225,195.095 117.225,194.595 119.5,195C 118.627,196.045 117.627,196.878 116.5,197.5 Z"/></g>
<g><path style="opacity:0.007" fill="#f3fcfd" d="M 230.5,197.5 C 229.609,196.89 228.609,196.557 227.5,196.5C 229.649,193.666 230.649,193.999 230.5,197.5 Z"/></g>
<g><path style="opacity:0.759" fill="#c1f3f5" d="M 331.5,202.5 C 329.52,198.947 328.854,195.281 329.5,191.5C 329.369,190.624 329.702,189.957 330.5,189.5C 331.492,193.783 331.826,198.116 331.5,202.5 Z"/></g>
<g><path style="opacity:0.2" fill="#daf8f9" d="M 459.5,193.5 C 459.573,195.027 458.906,196.027 457.5,196.5C 457.427,194.973 458.094,193.973 459.5,193.5 Z"/></g>
<g><path style="opacity:0.6" fill="#cbf5f6" d="M 154.5,197.5 C 156.027,197.427 157.027,198.094 157.5,199.5C 155.973,199.573 154.973,198.906 154.5,197.5 Z"/></g>
<g><path style="opacity:0.055" fill="#eafbfb" d="M 275.5,198.5 C 274.833,198.5 274.167,198.5 273.5,198.5C 273.786,196.067 274.452,196.067 275.5,198.5 Z"/></g>
<g><path style="opacity:0.004" fill="#e0f9fa" d="M 523.5,198.5 C 522.5,198.5 521.5,198.5 520.5,198.5C 521.5,195.833 522.5,195.833 523.5,198.5 Z"/></g>
<g><path style="opacity:0.659" fill="#d1f6f8" d="M 541.5,200.5 C 540.609,199.89 539.609,199.557 538.5,199.5C 540.306,196.662 541.306,196.995 541.5,200.5 Z"/></g>
<g><path style="opacity:0.106" fill="#ebfbfc" d="M 457.5,196.5 C 457.573,198.027 456.906,199.027 455.5,199.5C 455.427,197.973 456.094,196.973 457.5,196.5 Z"/></g>
<g><path style="opacity:0.212" fill="#e0f9fa" d="M 262.5,202.5 C 261.609,201.89 260.609,201.557 259.5,201.5C 261.649,198.666 262.649,198.999 262.5,202.5 Z"/></g>
<g><path style="opacity:0.005" fill="#f5fdfd" d="M 184.5,200.5 C 183.167,200.833 183.167,201.167 184.5,201.5C 184.34,203.153 183.674,204.486 182.5,205.5C 182.201,203.396 182.534,201.396 183.5,199.5C 184.107,199.624 184.44,199.957 184.5,200.5 Z"/></g>
<g><path style="opacity:0.8" fill="#b7f1f3" d="M 303.5,201.5 C 306.5,201.5 309.5,201.5 312.5,201.5C 309.447,203.88 306.447,203.88 303.5,201.5 Z"/></g>
<g><path style="opacity:0.6" fill="#bcf2f4" d="M 170.5,229.5 C 170.447,219.603 170.114,209.603 169.5,199.5C 169.56,198.957 169.893,198.624 170.5,198.5C 171.639,208.833 171.639,219.166 170.5,229.5 Z"/></g>
<g><path style="opacity:0.467" fill="#cff5f7" d="M 454.5,201.5 C 454.262,203.404 453.262,204.738 451.5,205.5C 451.738,203.596 452.738,202.262 454.5,201.5 Z"/></g>
<g><path style="opacity:0.012" fill="#fefffe" d="M 81.5,208.5 C 81.8417,207.662 82.5084,207.328 83.5,207.5C 83.5912,209.698 82.9245,210.031 81.5,208.5 Z"/></g>
<g><path style="opacity:0.294" fill="#ddf8f9" d="M 70.5,222.5 C 70.0826,219.841 69.0826,217.508 67.5,215.5C 67.811,214.522 68.4777,213.855 69.5,213.5C 70.4841,216.428 70.8174,219.428 70.5,222.5 Z"/></g>
<g><path style="opacity:0.318" fill="#daf8f9" d="M 445.5,212.5 C 444.5,215.5 442.5,217.5 439.5,218.5C 441.167,216.167 443.167,214.167 445.5,212.5 Z"/></g>
<g><path style="opacity:0.675" fill="#c3f4f5" d="M 51.5,213.5 C 50.0892,215.914 48.0892,217.581 45.5,218.5C 46.9108,216.086 48.9108,214.419 51.5,213.5 Z"/></g>
<g><path style="opacity:0.596" fill="#c8f4f6" d="M 45.5,218.5 C 45.5,220.5 44.5,221.5 42.5,221.5C 43.1667,220.167 44.1667,219.167 45.5,218.5 Z"/></g>
<g><path style="opacity:0.004" fill="#f7fdfd" d="M 50.5,230.5 C 51.4124,231.738 51.5791,233.072 51,234.5C 50.7216,233.584 50.2216,232.918 49.5,232.5C 49.3284,231.508 49.6618,230.842 50.5,230.5 Z"/></g>
<g><path style="opacity:0.518" fill="#cbf5f6" d="M 390.5,243.5 C 398.132,244.358 405.799,244.691 413.5,244.5C 407.013,245.654 400.346,245.821 393.5,245C 392.263,244.768 391.263,244.268 390.5,243.5 Z"/></g>
</svg>
