<?xml version="1.0" encoding="UTF-8"?>
<!DOCTYPE svg PUBLIC "-//W3C//DTD SVG 1.1//EN" "http://www.w3.org/Graphics/SVG/1.1/DTD/svg11.dtd">
<svg xmlns="http://www.w3.org/2000/svg" version="1.1" width="500px" height="500px" style="shape-rendering:geometricPrecision; text-rendering:geometricPrecision; image-rendering:optimizeQuality; fill-rule:evenodd; clip-rule:evenodd" xmlns:xlink="http://www.w3.org/1999/xlink">
<g><path style="opacity:0.999" fill="#6edde1" d="M 375.5,148.5 C 375.5,148.833 375.5,149.167 375.5,149.5C 375.263,150.791 375.596,151.791 376.5,152.5C 378.5,151.167 380.167,149.5 381.5,147.5C 387.596,141.398 394.596,140.231 402.5,144C 405.5,149.667 408.5,155.333 411.5,161C 409.842,161.725 409.342,162.892 410,164.5C 413.167,160.167 416.333,155.833 419.5,151.5C 418.038,147.599 418.538,143.932 421,140.5C 425.805,133.68 432.305,130.513 440.5,131C 444.153,134.145 444.486,137.645 441.5,141.5C 446.364,141.612 450.53,143.279 454,146.5C 454.584,149.257 454.25,151.923 453,154.5C 450.92,157.065 449.087,159.732 447.5,162.5C 445.115,164.884 443.115,167.55 441.5,170.5C 440.152,171.527 439.652,172.86 440,174.5C 441.518,173.837 442.685,172.837 443.5,171.5C 445.412,169.343 447.079,167.009 448.5,164.5C 450.339,163.492 451.672,161.992 452.5,160C 460.315,157.478 463.482,160.311 462,168.5C 456.874,175.96 450.707,182.46 443.5,188C 426.847,195.654 419.347,190.487 421,172.5C 416.25,179.266 409.917,183.599 402,185.5C 400.159,184.875 398.326,184.708 396.5,185C 393.834,187.335 390.834,189.169 387.5,190.5C 388.146,204.687 381.48,210.52 367.5,208C 356.052,202.048 348.386,192.881 344.5,180.5C 341.001,188.412 335.001,191.912 326.5,191C 324.391,190.093 323.058,188.593 322.5,186.5C 322.167,185.167 321.833,185.167 321.5,186.5C 315.358,190.186 308.691,191.352 301.5,190C 296.28,186.207 294.113,181.04 295,174.5C 290.477,180.02 285.644,185.187 280.5,190C 276.518,192.144 272.685,191.978 269,189.5C 268.51,188.207 268.343,186.873 268.5,185.5C 265.934,185.656 263.434,185.322 261,184.5C 254.454,190.276 246.954,192.109 238.5,190C 230.63,185.228 227.964,178.394 230.5,169.5C 232.009,166.322 233.342,162.989 234.5,159.5C 239.297,149.536 247.131,143.536 258,141.5C 262.019,141.843 265.352,143.509 268,146.5C 268.892,149.952 270.558,152.952 273,155.5C 273.333,158.5 273.667,161.5 274,164.5C 277.15,159.196 279.483,153.529 281,147.5C 287.906,141.851 293.74,142.851 298.5,150.5C 302.502,146.333 307.335,143.666 313,142.5C 320.45,143.714 323.117,148.048 321,155.5C 319.487,159.188 317.987,162.855 316.5,166.5C 315.662,166.842 315.328,167.508 315.5,168.5C 315.167,168.5 314.833,168.5 314.5,168.5C 313.662,168.842 313.328,169.508 313.5,170.5C 312.782,172.137 312.616,173.803 313,175.5C 316.297,173.205 319.297,170.538 322,167.5C 325.285,162.546 328.952,157.88 333,153.5C 332.519,147.796 334.685,143.463 339.5,140.5C 343.226,132.046 347.726,124.046 353,116.5C 359.317,108.47 367.483,104.637 377.5,105C 385.764,106.431 388.931,111.264 387,119.5C 383.845,128.333 378.678,135.833 371.5,142C 373.923,143.571 375.256,145.737 375.5,148.5 Z M 366.5,181.5 C 365.075,179.969 364.409,180.302 364.5,182.5C 359.731,177.149 357.397,170.982 357.5,164C 360.727,161.888 364.06,160.055 367.5,158.5C 373.53,154.536 374.03,155.536 369,161.5C 365.702,167.883 364.869,174.55 366.5,181.5 Z M 256.5,157.5 C 258.576,159.67 258.743,162.003 257,164.5C 253.603,166.558 251.937,169.558 252,173.5C 250.429,175.923 248.263,177.256 245.5,177.5C 247.068,169.699 250.734,163.033 256.5,157.5 Z M 392.5,158.5 C 393.649,158.791 394.316,159.624 394.5,161C 393.838,163.676 392.338,165.843 390,167.5C 389.823,172.605 387.489,176.272 383,178.5C 383.196,170.441 386.362,163.775 392.5,158.5 Z M 447.5,162.5 C 447.328,163.492 447.662,164.158 448.5,164.5C 447.079,167.009 445.412,169.343 443.5,171.5C 442.508,171.672 441.842,171.338 441.5,170.5C 443.115,167.55 445.115,164.884 447.5,162.5 Z M 366.5,181.5 C 367.674,182.514 368.34,183.847 368.5,185.5C 368.167,185.5 367.833,185.5 367.5,185.5C 367.5,184.833 367.167,184.5 366.5,184.5C 366.5,183.5 366.5,182.5 366.5,181.5 Z M 366.5,185.5 C 366.833,185.5 367.167,185.5 367.5,185.5C 367.5,186.167 367.833,186.5 368.5,186.5C 368.5,187.167 368.5,187.833 368.5,188.5C 367.833,188.167 367.167,187.833 366.5,187.5C 366.5,186.833 366.5,186.167 366.5,185.5 Z"/></g>
<g><path style="opacity:0.999" fill="#6fdde2" d="M 168.5,136.5 C 172.625,133.547 176.625,130.381 180.5,127C 188.056,125.915 190.556,129.081 188,136.5C 187.064,140.207 185.231,143.374 182.5,146C 182.957,146.414 183.291,146.914 183.5,147.5C 180.768,156.356 177.435,165.023 173.5,173.5C 173.833,173.833 174.167,174.167 174.5,174.5C 185.562,166.715 191.728,156.049 193,142.5C 200.073,137.008 206.239,138.008 211.5,145.5C 224.858,141.357 232.524,146.024 234.5,159.5C 233.342,162.989 232.009,166.322 230.5,169.5C 220.537,181.901 207.704,189.568 192,192.5C 188.165,203.01 184.831,213.676 182,224.5C 177.512,231.284 171.512,233.284 164,230.5C 162.578,227.97 162.245,225.303 163,222.5C 168.084,212.246 172.584,201.746 176.5,191C 176.167,190.5 175.833,190 175.5,189.5C 163.307,193.652 156.474,189.319 155,176.5C 154.333,175.833 153.667,175.167 153,174.5C 134.844,192.123 113.844,196.79 90,188.5C 86.6653,196.919 80.832,199.419 72.5,196C 70.3485,193.531 68.8485,190.698 68,187.5C 67.3537,179.039 66.8537,170.539 66.5,162C 66.1667,161.167 65.8333,160.333 65.5,159.5C 55.942,155.722 52.1086,148.722 54,138.5C 58.1407,126.359 66.3073,118.193 78.5,114C 97.7529,107.554 117.42,105.887 137.5,109C 157.612,113.29 167.612,125.79 167.5,146.5C 168.5,146.167 169.167,145.5 169.5,144.5C 168.607,141.916 168.274,139.249 168.5,136.5 Z M 121.5,120.5 C 131.932,118.367 140.765,121.367 148,129.5C 152.253,135.938 152.586,142.604 149,149.5C 139.812,167.846 124.979,177.846 104.5,179.5C 101.419,178.973 98.4193,178.14 95.5,177C 102.268,164.573 109.435,152.406 117,140.5C 119.653,136.257 123.486,134.424 128.5,135C 132.804,127.133 130.47,122.3 121.5,120.5 Z M 110.5,120.5 C 111.552,120.351 112.552,120.517 113.5,121C 100.963,127.875 93.4634,138.375 91,152.5C 88.0788,157.341 85.4121,162.341 83,167.5C 82.5812,165.32 82.7479,163.154 83.5,161C 81.6907,153.857 77.1907,149.357 70,147.5C 69.4484,144.581 70.1151,141.914 72,139.5C 83.0617,129.552 95.895,123.219 110.5,120.5 Z M 208.5,168.5 C 206.784,168.629 205.117,168.962 203.5,169.5C 207.164,165.003 211.331,161.003 216,157.5C 216.667,158.167 216.667,158.833 216,159.5C 213.665,162.665 211.165,165.665 208.5,168.5 Z"/></g>
<g><path style="opacity:1" fill="#060c0c" d="M 107.5,112.5 C 118.591,112.163 129.591,112.996 140.5,115C 159.725,122.294 165.891,135.794 159,155.5C 152.055,171.893 139.888,182.059 122.5,186C 113.825,187.962 105.158,187.962 96.5,186C 93.6714,184.753 91.0048,183.253 88.5,181.5C 86.1972,185.27 83.5306,188.77 80.5,192C 76.8198,192.682 74.3198,191.182 73,187.5C 72.3333,178.833 72.3333,170.167 73,161.5C 74.8138,160.24 76.6471,160.24 78.5,161.5C 76.8826,163.632 76.3826,165.965 77,168.5C 79,171.833 81.6667,174.5 85,176.5C 89.5898,167.653 93.9232,158.653 98,149.5C 98.1144,144.044 100.114,139.377 104,135.5C 107.175,131.992 110.675,128.825 114.5,126C 119.05,124.662 122.717,125.829 125.5,129.5C 122.564,130.115 119.897,131.282 117.5,133C 106.022,146.778 96.6888,161.944 89.5,178.5C 91.8374,181.322 94.8374,183.155 98.5,184C 124.182,185.41 142.682,174.576 154,151.5C 159.712,134.424 154.212,122.591 137.5,116C 110.803,111.624 87.47,118.457 67.5,136.5C 60.6213,146.25 62.9546,152.75 74.5,156C 62.2977,155.784 57.4644,149.618 60,137.5C 65.7719,127.407 74.2719,120.573 85.5,117C 92.8593,114.945 100.193,113.445 107.5,112.5 Z M 121.5,120.5 C 130.47,122.3 132.804,127.133 128.5,135C 123.486,134.424 119.653,136.257 117,140.5C 109.435,152.406 102.268,164.573 95.5,177C 98.4193,178.14 101.419,178.973 104.5,179.5C 124.979,177.846 139.812,167.846 149,149.5C 152.586,142.604 152.253,135.938 148,129.5C 140.765,121.367 131.932,118.367 121.5,120.5 Z"/></g>
<g><path style="opacity:1" fill="#091112" d="M 181.5,132.5 C 182.376,132.369 183.043,132.702 183.5,133.5C 182.782,137.622 180.616,140.622 177,142.5C 174.226,142.102 173.393,140.769 174.5,138.5C 176.878,136.448 179.211,134.448 181.5,132.5 Z"/></g>
<g><path style="opacity:0.004" fill="#fefffe" d="M 168.5,136.5 C 167.833,135.167 167.833,135.167 168.5,136.5 Z"/></g>
<g><path style="opacity:1" fill="#0a1212" d="M 434.5,135.5 C 435.5,135.5 436.5,135.5 437.5,135.5C 436.694,139.946 434.694,143.779 431.5,147C 436.833,147.333 442.167,147.667 447.5,148C 448.059,148.725 448.392,149.558 448.5,150.5C 445.229,155.614 441.729,160.614 438,165.5C 434.558,170.358 432.892,175.691 433,181.5C 435.21,182.749 437.376,182.582 439.5,181C 445.5,176.333 450.833,171 455.5,165C 456.332,164.312 456.998,164.479 457.5,165.5C 452.996,173.17 446.996,179.337 439.5,184C 429.74,189.048 425.24,186.215 426,175.5C 426.725,173.051 427.725,170.717 429,168.5C 433.022,163.979 436.856,159.312 440.5,154.5C 438.367,151.907 435.533,150.574 432,150.5C 430.289,150.439 428.956,151.106 428,152.5C 422.465,162.084 415.632,170.584 407.5,178C 403.679,180.141 400.012,179.974 396.5,177.5C 391.36,184.047 384.693,186.547 376.5,185C 371.312,179.712 370.145,173.545 373,166.5C 376.931,156.56 383.931,150.226 394,147.5C 399.583,147.257 401.749,149.924 400.5,155.5C 403.822,155.489 405.489,157.155 405.5,160.5C 404.376,165.708 402.376,170.541 399.5,175C 399.645,175.772 399.978,176.439 400.5,177C 402.167,177.667 403.833,177.667 405.5,177C 413.699,169.248 420.699,160.582 426.5,151C 423.139,149.574 422.639,147.407 425,144.5C 427.406,140.592 430.572,137.592 434.5,135.5 Z M 392.5,158.5 C 386.362,163.775 383.196,170.441 383,178.5C 387.489,176.272 389.823,172.605 390,167.5C 392.338,165.843 393.838,163.676 394.5,161C 394.316,159.624 393.649,158.791 392.5,158.5 Z"/></g>
<g><path style="opacity:1" fill="#060c0d" d="M 197.5,144.5 C 199.527,144.338 201.527,144.505 203.5,145C 204.081,145.893 204.415,146.893 204.5,148C 202.116,153.572 199.949,159.072 198,164.5C 202.118,158.176 207.618,153.343 214.5,150C 229.026,148.892 232.526,154.725 225,167.5C 215.649,178.928 203.482,185.261 188.5,186.5C 183.354,198.104 179.521,210.104 177,222.5C 174.676,225.996 171.509,226.996 167.5,225.5C 174.83,207.845 182.164,190.178 189.5,172.5C 189.333,172.167 189.167,171.833 189,171.5C 185.133,175.702 180.967,179.535 176.5,183C 172.738,185.156 168.738,185.823 164.5,185C 163.333,184.5 162.5,183.667 162,182.5C 161.391,177.677 161.724,173.01 163,168.5C 162.044,169.579 161.211,170.745 160.5,172C 159.668,172.688 159.002,172.521 158.5,171.5C 161.667,167.167 164.833,162.833 168,158.5C 168.529,152.465 171.696,149.465 177.5,149.5C 174.929,157.323 171.762,164.99 168,172.5C 167.333,175.5 167.333,178.5 168,181.5C 168.725,182.059 169.558,182.392 170.5,182.5C 186.881,175.069 195.881,162.403 197.5,144.5 Z M 208.5,168.5 C 206.784,168.629 205.117,168.962 203.5,169.5C 207.164,165.003 211.331,161.003 216,157.5C 216.667,158.167 216.667,158.833 216,159.5C 213.665,162.665 211.165,165.665 208.5,168.5 Z"/></g>
<g><path style="opacity:0.013" fill="#ecfbfc" d="M 381.5,147.5 C 380.167,149.5 378.5,151.167 376.5,152.5C 376.737,151.209 376.404,150.209 375.5,149.5C 375.5,149.167 375.5,148.833 375.5,148.5C 377.386,148.653 379.386,148.32 381.5,147.5 Z"/></g>
<g><path style="opacity:1" fill="#070f0f" d="M 368.5,110.5 C 372.637,110.146 376.637,110.646 380.5,112C 382.444,114.153 382.944,116.653 382,119.5C 373.259,134.24 361.259,145.574 346,153.5C 343.61,159.211 341.443,165.044 339.5,171C 339.548,172.033 339.881,172.366 340.5,172C 344.431,167.912 346.765,163.079 347.5,157.5C 348.167,158.167 348.833,158.833 349.5,159.5C 353.318,156.182 356.985,152.682 360.5,149C 363.273,146.718 366.273,146.218 369.5,147.5C 370.754,149.259 370.421,150.759 368.5,152C 363.341,154.412 358.341,157.079 353.5,160C 351.876,161.117 350.876,162.617 350.5,164.5C 353.524,177.053 359.524,187.886 368.5,197C 379.431,203.236 382.097,200.736 376.5,189.5C 377.868,188.406 379.035,188.74 380,190.5C 383.76,194.943 383.26,198.776 378.5,202C 375.262,203.368 371.928,203.701 368.5,203C 361.614,199.114 356.447,193.614 353,186.5C 350.545,180.593 348.379,174.593 346.5,168.5C 343.257,173.594 339.757,178.594 336,183.5C 333.468,185.61 330.968,186.11 328.5,185C 331.57,176.787 334.403,168.62 337,160.5C 331.586,169.249 324.753,176.749 316.5,183C 305.168,189.012 300.001,185.845 301,173.5C 302.902,167.37 305.069,161.37 307.5,155.5C 303.114,156.366 299.614,158.699 297,162.5C 291.42,170.5 285.253,178 278.5,185C 277.128,185.402 275.795,185.902 274.5,186.5C 274.167,186 273.833,185.5 273.5,185C 275.04,180.379 276.54,175.879 278,171.5C 273.978,177.43 268.478,179.93 261.5,179C 261,178.5 260.5,178 260,177.5C 253.621,185.827 245.955,187.494 237,182.5C 233.712,168.894 237.879,158.06 249.5,150C 253.218,147.702 257.218,147.035 261.5,148C 263.576,149.884 263.91,152.051 262.5,154.5C 261.614,153.675 261.281,152.675 261.5,151.5C 259.011,151.298 256.677,151.798 254.5,153C 246.632,159.203 241.632,167.203 239.5,177C 240.107,182.608 243.107,184.608 248.5,183C 254.244,180.599 257.744,176.433 259,170.5C 261.324,169.193 262.657,167.193 263,164.5C 263.17,161.532 263.336,158.699 263.5,156C 267.068,155.567 268.734,157.233 268.5,161C 267.326,166.015 265.326,170.682 262.5,175C 262.862,176.885 264.029,177.719 266,177.5C 271.146,175.37 275.479,172.037 279,167.5C 281.307,161.579 283.807,155.746 286.5,150C 288.956,149.054 290.956,149.554 292.5,151.5C 288.766,158.611 285.932,165.944 284,173.5C 290.135,166.364 296.635,159.531 303.5,153C 305.963,150.435 308.963,148.935 312.5,148.5C 314.955,148.112 316.288,149.112 316.5,151.5C 312.286,159.638 308.953,168.138 306.5,177C 306.124,180.119 307.458,181.952 310.5,182.5C 314.273,180.57 317.94,178.403 321.5,176C 327.786,168.592 333.953,161.092 340,153.5C 340.18,151.512 340.014,149.512 339.5,147.5C 340.675,147.719 341.675,147.386 342.5,146.5C 347.786,131.877 356.453,119.877 368.5,110.5 Z M 256.5,157.5 C 250.734,163.033 247.068,169.699 245.5,177.5C 248.263,177.256 250.429,175.923 252,173.5C 251.937,169.558 253.603,166.558 257,164.5C 258.743,162.003 258.576,159.67 256.5,157.5 Z"/></g>
<g><path style="opacity:1" fill="#5ad7dc" d="M 373.5,113.5 C 375.5,113.5 377.5,113.5 379.5,113.5C 374.157,128.849 364.157,140.182 349.5,147.5C 350.257,143.922 351.757,140.256 354,136.5C 359.579,127.979 366.079,120.313 373.5,113.5 Z"/></g>
<g><path style="opacity:0.999" fill="#68dce0" d="M 216.5,151.5 C 218.199,151.34 219.866,151.506 221.5,152C 222.097,153.062 222.43,154.228 222.5,155.5C 217.171,171.186 206.504,180.186 190.5,182.5C 195.216,168.666 203.882,158.332 216.5,151.5 Z M 208.5,168.5 C 206.784,168.629 205.117,168.962 203.5,169.5C 207.164,165.003 211.331,161.003 216,157.5C 216.667,158.167 216.667,158.833 216,159.5C 213.665,162.665 211.165,165.665 208.5,168.5 Z"/></g>
<g><path style="opacity:1" fill="#6fdfe3" d="M 392.5,151.5 C 394.5,151.5 396.5,151.5 398.5,151.5C 399.774,157.508 399.774,163.508 398.5,169.5C 397.178,169.33 396.011,169.663 395,170.5C 393.041,178.804 387.875,182.97 379.5,183C 376.806,180.347 375.973,177.18 377,173.5C 380.089,164.597 385.256,157.264 392.5,151.5 Z M 392.5,158.5 C 386.362,163.775 383.196,170.441 383,178.5C 387.489,176.272 389.823,172.605 390,167.5C 392.338,165.843 393.838,163.676 394.5,161C 394.316,159.624 393.649,158.791 392.5,158.5 Z"/></g>
<g><path style="opacity:0.004" fill="#fefffe" d="M 449.5,160.5 C 450.833,161.167 450.833,161.167 449.5,160.5 Z"/></g>
<g><path style="opacity:0.004" fill="#fbfefe" d="M 316.5,166.5 C 318.085,167.002 318.585,168.002 318,169.5C 316.457,172.419 314.957,172.752 313.5,170.5C 313.328,169.508 313.662,168.842 314.5,168.5C 314.833,169.833 315.167,169.833 315.5,168.5C 316.338,168.158 316.672,167.492 316.5,166.5 Z"/></g>
<g><path style="opacity:0.206" fill="#f7fdfd" d="M 208.5,168.5 C 206.198,171.412 203.364,173.745 200,175.5C 199.333,174.833 199.333,174.167 200,173.5C 200.949,171.907 202.115,170.574 203.5,169.5C 205.117,168.962 206.784,168.629 208.5,168.5 Z"/></g>
<g><path style="opacity:0.029" fill="#ebfbfc" d="M 441.5,170.5 C 441.842,171.338 442.508,171.672 443.5,171.5C 442.685,172.837 441.518,173.837 440,174.5C 439.652,172.86 440.152,171.527 441.5,170.5 Z"/></g>
<g><path style="opacity:1" fill="#56d3d8" d="M 77.5,173.5 C 84.9698,177.857 85.3031,182.857 78.5,188.5C 76.7298,185.807 76.0632,182.807 76.5,179.5C 76.2053,177.265 76.5386,175.265 77.5,173.5 Z"/></g>
<g><path style="opacity:1" fill="#225254" d="M 77.5,173.5 C 76.5386,175.265 76.2053,177.265 76.5,179.5C 75.2031,177.307 75.2031,174.973 76.5,172.5C 77.1067,172.624 77.44,172.957 77.5,173.5 Z"/></g>
<g><path style="opacity:0.004" fill="#fefffe" d="M 366.5,181.5 C 366.5,182.5 366.5,183.5 366.5,184.5C 366.167,184.5 365.833,184.5 365.5,184.5C 365.672,183.508 365.338,182.842 364.5,182.5C 364.409,180.302 365.075,179.969 366.5,181.5 Z"/></g>
<g><path style="opacity:0.004" fill="#fefffe" d="M 321.5,186.5 C 321.833,186.5 322.167,186.5 322.5,186.5C 322.315,187.17 321.981,187.17 321.5,186.5 Z"/></g>
<g><path style="opacity:0.004" fill="#fefffe" d="M 368.5,186.5 C 368.833,186.5 369.167,186.5 369.5,186.5C 369.5,187.167 369.833,187.5 370.5,187.5C 370.5,188.167 370.5,188.833 370.5,189.5C 370.167,189.5 369.833,189.5 369.5,189.5C 369.5,188.833 369.167,188.5 368.5,188.5C 368.5,187.833 368.5,187.167 368.5,186.5 Z"/></g>
<g><path style="opacity:0.196" fill="#e0f9fa" d="M 366.5,187.5 C 367.167,187.833 367.833,188.167 368.5,188.5C 369.167,188.5 369.5,188.833 369.5,189.5C 369.833,190.833 370.167,190.833 370.5,189.5C 370.833,189.5 371.167,189.5 371.5,189.5C 372.622,191.052 373.122,192.718 373,194.5C 369.926,192.929 367.76,190.596 366.5,187.5 Z"/></g>
<g><path style="opacity:0.999" fill="#6ddde2" d="M 232.5,343.5 C 230.912,344.635 230.579,345.969 231.5,347.5C 233.521,346.145 235.188,344.479 236.5,342.5C 237.5,342.167 238.167,341.5 238.5,340.5C 240.463,339.04 242.296,337.373 244,335.5C 246.321,329.522 248.821,323.689 251.5,318C 256.325,315.785 260.825,316.285 265,319.5C 265.483,320.448 265.649,321.448 265.5,322.5C 269.563,320.632 273.563,318.465 277.5,316C 284.657,313.905 288.991,316.405 290.5,323.5C 288.831,329.839 286.331,335.839 283,341.5C 282.009,343.447 281.675,345.447 282,347.5C 289.93,339.849 297.764,332.016 305.5,324C 314.507,317.609 324.507,314.109 335.5,313.5C 340.656,300.195 348.656,289.029 359.5,280C 366.194,276.723 372.861,276.723 379.5,280C 383.672,284.197 384.505,289.031 382,294.5C 379.78,299.384 376.78,303.718 373,307.5C 372.358,309.762 371.525,311.929 370.5,314C 375.136,314.362 379.303,315.862 383,318.5C 384.054,322.655 383.22,326.322 380.5,329.5C 379.833,329.5 379.5,329.833 379.5,330.5C 379.5,330.833 379.5,331.167 379.5,331.5C 377.738,332.262 376.738,333.596 376.5,335.5C 375.833,335.5 375.5,335.833 375.5,336.5C 374.094,336.973 373.427,337.973 373.5,339.5C 371.584,340.665 370.751,342.332 371,344.5C 373.332,342.797 375.165,340.797 376.5,338.5C 377.167,338.5 377.5,338.167 377.5,337.5C 378.167,337.5 378.5,337.167 378.5,336.5C 379.906,336.027 380.573,335.027 380.5,333.5C 381.167,333.5 381.5,333.167 381.5,332.5C 382.167,332.5 382.5,332.167 382.5,331.5C 390.13,324.006 399.13,318.506 409.5,315C 422.721,311.576 429.721,316.576 430.5,330C 428.623,334.254 426.623,338.421 424.5,342.5C 423.662,342.842 423.328,343.508 423.5,344.5C 423.807,347.962 424.807,347.962 426.5,344.5C 427.167,344.5 427.5,344.167 427.5,343.5C 428.167,343.5 428.5,343.167 428.5,342.5C 429.167,342.5 429.833,342.5 430.5,342.5C 433.243,340.761 435.243,338.427 436.5,335.5C 438.438,331.831 441.438,330.664 445.5,332C 448.097,334.317 448.93,337.15 448,340.5C 441.713,350.123 433.546,357.623 423.5,363C 414.997,365.331 409.164,362.498 406,354.5C 399.972,360.734 392.806,362.9 384.5,361C 381.898,360.117 379.731,358.617 378,356.5C 371.785,362.844 364.285,365.011 355.5,363C 353.333,362.167 351.833,360.667 351,358.5C 349.927,354.916 349.26,351.25 349,347.5C 348.586,347.043 348.086,346.709 347.5,346.5C 344.593,347.247 341.76,347.581 339,347.5C 337.846,351.447 337.013,355.447 336.5,359.5C 336.281,360.675 336.614,361.675 337.5,362.5C 339.409,361.652 341.409,361.318 343.5,361.5C 347.554,365.767 347.221,369.934 342.5,374C 325.818,378.976 318.818,372.976 321.5,356C 321,355.5 320.5,355 320,354.5C 315.471,358.348 310.305,361.015 304.5,362.5C 299.947,361.557 295.947,359.557 292.5,356.5C 286.823,361.845 280.156,364.012 272.5,363C 264.717,359.684 261.884,353.85 264,345.5C 260.213,350.956 256.046,356.123 251.5,361C 246.035,365.205 241.035,365.038 236.5,360.5C 230.726,363.753 224.726,364.253 218.5,362C 216.709,359.586 215.043,357.086 213.5,354.5C 208.988,358.756 203.655,361.423 197.5,362.5C 192.947,361.557 188.947,359.557 185.5,356.5C 179.52,361.994 172.52,364.16 164.5,363C 158.21,359.167 155.71,353.667 157,346.5C 152.952,351.427 148.785,356.26 144.5,361C 141.794,362.548 138.96,363.714 136,364.5C 134.122,363.947 132.622,362.947 131.5,361.5C 131.517,358.08 131.683,354.746 132,351.5C 130.955,352.373 130.122,353.373 129.5,354.5C 128.508,354.328 127.842,354.662 127.5,355.5C 110.663,367.565 92.3294,370.398 72.5,364C 62.4452,356.171 58.9452,346.004 62,333.5C 69.9355,306.566 87.1021,288.399 113.5,279C 121.376,277.862 129.043,278.529 136.5,281C 144.258,289.553 144.425,298.386 137,307.5C 127.252,319.294 114.752,326.294 99.5,328.5C 92.211,327.927 90.0444,324.26 93,317.5C 93.9025,316.299 95.0692,315.465 96.5,315C 110.839,313.68 121.173,306.68 127.5,294C 127.266,292.268 126.266,291.434 124.5,291.5C 112.642,295.514 102.475,302.181 94,311.5C 85.3945,321.211 79.5612,332.377 76.5,345C 78.646,352.004 83.4793,355.171 91,354.5C 113.84,353.106 129.84,342.106 139,321.5C 140.815,319.595 142.815,317.928 145,316.5C 150.835,302.975 159.002,291.142 169.5,281C 176.364,276.878 183.364,276.545 190.5,280C 193.167,282 194.5,284.667 194.5,288C 193.984,292.549 192.484,296.715 190,300.5C 185.867,305.634 181.367,310.468 176.5,315C 181.063,315.943 183.396,318.776 183.5,323.5C 181.232,330.706 178.399,337.706 175,344.5C 174.333,345.5 174.333,346.5 175,347.5C 182.833,339.667 190.667,331.833 198.5,324C 206,318.581 214.333,315.415 223.5,314.5C 233.468,314.468 238.468,319.468 238.5,329.5C 236.023,333.972 234.023,338.639 232.5,343.5 Z M 379.5,331.5 C 379.5,332.167 379.5,332.833 379.5,333.5C 378.833,333.5 378.5,333.833 378.5,334.5C 377.833,334.833 377.167,335.167 376.5,335.5C 376.738,333.596 377.738,332.262 379.5,331.5 Z M 379.5,333.5 C 379.833,333.5 380.167,333.5 380.5,333.5C 380.573,335.027 379.906,336.027 378.5,336.5C 378.5,335.833 378.5,335.167 378.5,334.5C 379.167,334.5 379.5,334.167 379.5,333.5 Z M 375.5,336.5 C 375.328,337.492 375.662,338.158 376.5,338.5C 375.165,340.797 373.332,342.797 371,344.5C 370.751,342.332 371.584,340.665 373.5,339.5C 373.427,337.973 374.094,336.973 375.5,336.5 Z M 423.5,344.5 C 424.5,345.833 425.5,345.833 426.5,344.5C 424.807,347.962 423.807,347.962 423.5,344.5 Z"/></g>
<g><path style="opacity:1" fill="#080f0f" d="M 117.5,282.5 C 123.852,281.715 129.686,283.048 135,286.5C 138.091,291.433 138.091,296.433 135,301.5C 125.405,314.71 112.572,321.71 96.5,322.5C 96.9767,321.522 97.6433,320.689 98.5,320C 113.558,318.73 124.725,311.564 132,298.5C 132.667,295.167 132.667,291.833 132,288.5C 126.968,286.013 121.801,285.846 116.5,288C 97.1986,298.304 83.0319,313.47 74,333.5C 68.4057,353.916 76.239,362.416 97.5,359C 118.38,355.571 134.047,344.737 144.5,326.5C 144.167,325.833 143.833,325.167 143.5,324.5C 144.991,323.756 146.491,323.09 148,322.5C 152.738,311.348 158.738,301.014 166,291.5C 170.949,284.939 177.449,282.105 185.5,283C 187.921,283.998 189.255,285.832 189.5,288.5C 188.67,290.828 187.837,293.162 187,295.5C 176.647,307.852 164.98,318.852 152,328.5C 149.37,334.062 147.37,339.729 146,345.5C 152.833,337.333 160.333,329.833 168.5,323C 171.206,321.092 174.206,320.259 177.5,320.5C 177.699,323.941 177.199,327.274 176,330.5C 172.863,335.108 170.53,340.108 169,345.5C 168.223,348.429 168.39,351.263 169.5,354C 171.5,354.667 173.5,354.667 175.5,354C 184.403,346.886 192.403,338.886 199.5,330C 206.16,324.337 213.827,320.837 222.5,319.5C 225.698,319.622 228.698,320.455 231.5,322C 232.517,323.049 232.684,324.216 232,325.5C 230.014,323.258 227.514,322.258 224.5,322.5C 210.712,325.82 200.545,333.82 194,346.5C 193.333,348.833 193.333,351.167 194,353.5C 195.049,354.517 196.216,354.684 197.5,354C 208.708,347.129 218.375,338.462 226.5,328C 229.038,327.133 231.038,327.799 232.5,330C 229.941,334.286 227.774,338.786 226,343.5C 223.946,356.46 227.779,358.627 237.5,350C 241,346.5 244.5,343 248,339.5C 250.393,334.322 252.393,328.988 254,323.5C 255.789,321.771 257.956,321.104 260.5,321.5C 258.273,329.677 255.773,337.677 253,345.5C 259.135,338.364 265.635,331.531 272.5,325C 274.67,323.414 277.004,322.08 279.5,321C 284.083,320.066 285.583,321.9 284,326.5C 280.731,333.864 277.898,341.364 275.5,349C 275.189,353.472 277.189,355.139 281.5,354C 290.819,347.68 298.819,340.014 305.5,331C 312.321,324.757 320.321,320.923 329.5,319.5C 332.322,319.552 334.989,320.219 337.5,321.5C 340.257,316.318 342.757,310.985 345,305.5C 349.691,296.473 356.191,288.973 364.5,283C 368.9,282.022 373.067,282.522 377,284.5C 378.315,290.204 376.982,295.204 373,299.5C 370.167,302.333 367.333,305.167 364.5,308C 365.428,308.388 366.095,309.055 366.5,310C 364.713,313.072 363.047,316.239 361.5,319.5C 366.802,320.329 372.136,320.829 377.5,321C 377.957,321.414 378.291,321.914 378.5,322.5C 373.081,329.087 368.248,336.087 364,343.5C 362.492,347.346 362.325,351.179 363.5,355C 364.908,355.315 366.241,354.982 367.5,354C 370.5,351.667 373.5,349.333 376.5,347C 381.857,340.645 387.523,334.645 393.5,329C 398.723,325.221 404.39,322.221 410.5,320C 415.111,318.993 419.445,319.66 423.5,322C 424.791,325.025 424.124,325.359 421.5,323C 418.833,322.333 416.167,322.333 413.5,323C 399.836,327.666 390.503,336.666 385.5,350C 385.104,353.939 386.771,355.272 390.5,354C 401.061,346.445 410.728,337.778 419.5,328C 421.809,327.244 423.809,327.744 425.5,329.5C 422.473,334.221 419.973,339.221 418,344.5C 417.216,347.76 417.383,350.927 418.5,354C 420.5,354.667 422.5,354.667 424.5,354C 430.495,349.005 436.161,343.672 441.5,338C 442.332,337.312 442.998,337.479 443.5,338.5C 437.232,346.272 429.899,352.772 421.5,358C 418.412,358.847 415.579,358.347 413,356.5C 411.336,351.208 411.003,345.874 412,340.5C 406.711,346.796 400.544,351.962 393.5,356C 385.755,357.603 381.255,354.436 380,346.5C 375.779,351.685 370.612,355.519 364.5,358C 356.253,359.391 353.086,355.891 355,347.5C 359.248,340.087 364.081,333.087 369.5,326.5C 366.641,323.048 362.974,321.881 358.5,323C 354.052,329.782 349.219,336.282 344,342.5C 343.333,341.5 343.333,340.5 344,339.5C 348.223,334.276 352.056,328.776 355.5,323C 353.667,322.5 352.5,321.333 352,319.5C 347.446,322.118 343.446,325.452 340,329.5C 334.016,340.434 331.349,352.101 332,364.5C 334.379,369.505 337.379,369.839 341,365.5C 341.09,367.768 339.923,369.268 337.5,370C 332.269,371.724 328.435,370.224 326,365.5C 325.333,361.167 325.333,356.833 326,352.5C 328.009,346.848 329.676,341.181 331,335.5C 324.748,344.081 316.915,350.915 307.5,356C 300.748,356.939 296.248,354.106 294,347.5C 289.963,352.102 285.129,355.602 279.5,358C 275.82,359.027 272.653,358.194 270,355.5C 269.333,351.833 269.333,348.167 270,344.5C 272.227,339.046 274.727,333.713 277.5,328.5C 272.504,328.76 268.337,331.093 265,335.5C 259.955,342.423 254.788,349.256 249.5,356C 247.35,357.411 245.016,358.245 242.5,358.5C 243.433,353.679 244.6,349.012 246,344.5C 241.371,350.135 235.871,354.635 229.5,358C 222.299,359.474 218.632,356.474 218.5,349C 219.109,345.761 219.609,342.594 220,339.5C 215.075,346.427 208.908,351.927 201.5,356C 194.207,357.435 189.373,354.601 187,347.5C 181.771,354.363 174.938,357.863 166.5,358C 163.183,356.196 161.85,353.363 162.5,349.5C 163.742,342.006 166.408,335.006 170.5,328.5C 170,328.167 169.5,327.833 169,327.5C 165.401,329.429 162.067,331.763 159,334.5C 153.379,341.577 147.879,348.743 142.5,356C 140.35,357.411 138.016,358.245 135.5,358.5C 138.06,349.323 140.894,340.323 144,331.5C 128.202,354.817 106.368,364.65 78.5,361C 68.6385,355.773 64.8052,347.606 67,336.5C 74.4101,309.593 91.2434,291.593 117.5,282.5 Z M 379.5,331.5 C 379.5,332.167 379.5,332.833 379.5,333.5C 378.833,333.5 378.5,333.833 378.5,334.5C 377.833,334.833 377.167,335.167 376.5,335.5C 376.738,333.596 377.738,332.262 379.5,331.5 Z M 379.5,333.5 C 379.833,333.5 380.167,333.5 380.5,333.5C 380.573,335.027 379.906,336.027 378.5,336.5C 378.5,335.833 378.5,335.167 378.5,334.5C 379.167,334.5 379.5,334.167 379.5,333.5 Z M 375.5,336.5 C 375.328,337.492 375.662,338.158 376.5,338.5C 375.165,340.797 373.332,342.797 371,344.5C 370.751,342.332 371.584,340.665 373.5,339.5C 373.427,337.973 374.094,336.973 375.5,336.5 Z M 423.5,344.5 C 424.5,345.833 425.5,345.833 426.5,344.5C 424.807,347.962 423.807,347.962 423.5,344.5 Z"/></g>
<g><path style="opacity:1" fill="#58d9de" d="M 181.5,285.5 C 182.833,285.5 184.167,285.5 185.5,285.5C 184.988,291.194 182.821,296.194 179,300.5C 171.932,308.238 164.266,315.238 156,321.5C 160.701,306.941 169.201,294.941 181.5,285.5 Z"/></g>
<g><path style="opacity:1" fill="#58d7dc" d="M 370.5,285.5 C 371.833,285.5 373.167,285.5 374.5,285.5C 374.66,287.199 374.494,288.866 374,290.5C 366.401,302.933 356.568,313.266 344.5,321.5C 349.468,307.143 358.135,295.143 370.5,285.5 Z"/></g>
<g><path style="opacity:1" fill="#5ddbdf" d="M 327.5,322.5 C 330.5,322.5 333.5,322.5 336.5,322.5C 336.509,324.308 336.009,325.975 335,327.5C 325.798,338.216 315.298,347.216 303.5,354.5C 301.053,354.099 300.053,352.599 300.5,350C 302.815,342.397 307.148,336.064 313.5,331C 318.097,327.877 322.763,325.043 327.5,322.5 Z"/></g>
<g><path style="opacity:0.007" fill="#fefffe" d="M 379.5,330.5 C 379.5,329.833 379.833,329.5 380.5,329.5C 381.833,329.5 382.5,330.167 382.5,331.5C 381.833,331.5 381.5,331.833 381.5,332.5C 380.833,332.5 380.5,332.833 380.5,333.5C 380.167,333.5 379.833,333.5 379.5,333.5C 379.5,332.833 379.5,332.167 379.5,331.5C 380.833,331.167 380.833,330.833 379.5,330.5 Z"/></g>
<g><path style="opacity:1" fill="#f0fcfc" d="M 325.5,328.5 C 326.239,328.369 326.906,328.536 327.5,329C 320.51,335.598 313.344,342.098 306,348.5C 306.044,346.721 306.711,345.055 308,343.5C 313.142,337.512 318.976,332.512 325.5,328.5 Z"/></g>
<g><path style="opacity:0.231" fill="#f1fcfd" d="M 216.5,329.5 C 217.239,329.369 217.906,329.536 218.5,330C 212.584,336.945 205.918,342.612 198.5,347C 201.167,343.667 203.833,340.333 206.5,337C 210.08,334.723 213.414,332.223 216.5,329.5 Z"/></g>
<g><path style="opacity:1" fill="#f0fcfc" d="M 408.5,329.5 C 409.239,329.369 409.906,329.536 410.5,330C 405.293,336.875 399.126,342.708 392,347.5C 392.398,345.369 393.398,343.369 395,341.5C 399.478,337.365 403.978,333.365 408.5,329.5 Z"/></g>
<g><path style="opacity:0.004" fill="#fefffe" d="M 378.5,334.5 C 378.5,335.167 378.5,335.833 378.5,336.5C 377.833,336.5 377.5,336.833 377.5,337.5C 376.833,337.5 376.5,337.833 376.5,338.5C 375.662,338.158 375.328,337.492 375.5,336.5C 376.167,336.5 376.5,336.167 376.5,335.5C 377.167,335.167 377.833,334.833 378.5,334.5 Z"/></g>
<g><path style="opacity:0.007" fill="#f5fdfd" d="M 436.5,335.5 C 435.243,338.427 433.243,340.761 430.5,342.5C 429.833,341.167 429.167,341.167 428.5,342.5C 427.833,342.5 427.5,342.833 427.5,343.5C 426.833,343.5 426.5,343.833 426.5,344.5C 425.5,345.833 424.5,345.833 423.5,344.5C 423.328,343.508 423.662,342.842 424.5,342.5C 424.435,342.938 424.601,343.272 425,343.5C 428.337,340.207 432.17,337.54 436.5,335.5 Z"/></g>
<g><path style="opacity:0.004" fill="#fefffe" d="M 238.5,340.5 C 237.833,339.167 237.833,339.167 238.5,340.5 Z"/></g>
<g><path style="opacity:0.004" fill="#fefffe" d="M 236.5,342.5 C 235.475,342.103 235.308,341.437 236,340.5C 236.464,341.094 236.631,341.761 236.5,342.5 Z"/></g>
<g><path style="opacity:0.004" fill="#fefffe" d="M 233.5,342.5 C 234.833,343.167 234.833,343.167 233.5,342.5 Z"/></g>
<g><path style="opacity:0.004" fill="#fefffe" d="M 232.5,343.5 C 232.833,343.5 233.167,343.5 233.5,343.5C 233.315,344.17 232.981,344.17 232.5,343.5 Z"/></g>
<g><path style="opacity:0.82" fill="#caf5f6" d="M 131.5,361.5 C 131.023,358.975 129.69,356.975 127.5,355.5C 127.842,354.662 128.508,354.328 129.5,354.5C 130.122,353.373 130.955,352.373 132,351.5C 131.683,354.746 131.517,358.08 131.5,361.5 Z"/></g>
<g><path style="opacity:0.017" fill="#f8fdfe" d="M 336.5,359.5 C 339.01,359.927 341.343,360.593 343.5,361.5C 341.409,361.318 339.409,361.652 337.5,362.5C 336.614,361.675 336.281,360.675 336.5,359.5 Z"/></g>
</svg>
